<svg width="34" height="34" viewBox="0 0 34 34" fill="none" xmlns="http://www.w3.org/2000/svg">
<path d="M19.9312 9.625C21.0301 9.83939 22.0399 10.3768 22.8316 11.1684C23.6232 11.9601 24.1606 12.9699 24.375 14.0687L19.9312 9.625ZM19.9312 5.125C22.2142 5.37862 24.343 6.40095 25.9683 8.02413C27.5935 9.64732 28.6185 11.7749 28.875 14.0575L19.9312 5.125ZM27.75 23.035V26.41C27.7513 26.7233 27.6871 27.0334 27.5616 27.3205C27.436 27.6076 27.2519 27.8653 27.0211 28.0771C26.7902 28.2889 26.5176 28.4502 26.2208 28.5505C25.924 28.6509 25.6095 28.6882 25.2975 28.66C21.8357 28.2838 18.5104 27.1009 15.5887 25.2063C12.8705 23.479 10.566 21.1744 8.83874 18.4563C6.93746 15.5214 5.75426 12.1799 5.38499 8.7025C5.35687 8.3914 5.39385 8.07786 5.49355 7.78183C5.59325 7.4858 5.7535 7.21378 5.9641 6.98307C6.17469 6.75237 6.43102 6.56805 6.71675 6.44184C7.00248 6.31563 7.31137 6.25029 7.62374 6.25H10.9987C11.5447 6.24463 12.074 6.43796 12.488 6.79397C12.9019 7.14999 13.1723 7.64438 13.2487 8.185C13.3912 9.26507 13.6554 10.3256 14.0362 11.3463C14.1876 11.7489 14.2204 12.1865 14.1306 12.6072C14.0409 13.028 13.8325 13.4141 13.53 13.72L12.1012 15.1487C13.7027 17.9652 16.0347 20.2972 18.8512 21.8987L20.28 20.47C20.5859 20.1675 20.972 19.9591 21.3927 19.8694C21.8135 19.7796 22.2511 19.8124 22.6537 19.9637C23.6744 20.3446 24.7349 20.6088 25.815 20.7513C26.3615 20.8283 26.8606 21.1036 27.2173 21.5247C27.5741 21.9458 27.7637 22.4833 27.75 23.035Z" stroke="white" stroke-width="2" stroke-linecap="round" stroke-linejoin="round"/>
</svg>
