<svg width="73" height="74" viewBox="0 0 73 74" fill="none" xmlns="http://www.w3.org/2000/svg">
<path fill-rule="evenodd" clip-rule="evenodd" d="M61.8278 31.7495C64.7071 45.8999 55.5701 59.7052 41.4197 62.5845C27.2693 65.4639 13.464 56.3269 10.5847 42.1765C7.70536 28.0261 16.8424 14.2208 30.9928 11.3414C45.1432 8.46209 58.9485 17.5991 61.8278 31.7495ZM63.9767 31.3122C67.0975 46.6494 57.1942 61.6126 41.857 64.7335C26.5198 67.8543 11.5566 57.9509 8.43578 42.6137C5.31496 27.2765 15.2183 12.3133 30.5555 9.19252C45.8927 6.0717 60.8559 15.975 63.9767 31.3122ZM39.5024 53.1624C48.4491 51.3419 54.226 42.6134 52.4056 33.6667C50.5851 24.72 41.8566 18.9431 32.9099 20.7635C23.9632 22.584 18.1862 31.3125 20.0067 40.2592C21.8272 49.206 30.5557 54.9829 39.5024 53.1624Z" fill="#EF4E35"/>
</svg>
