<svg width="76" height="85" viewBox="0 0 76 85" fill="none" xmlns="http://www.w3.org/2000/svg">
<path fill-rule="evenodd" clip-rule="evenodd" d="M60.0972 74.6774C60.0718 77.8147 50.6168 80.2817 38.9787 80.1874C27.3405 80.0931 17.9265 77.4734 17.9518 74.336C17.9771 71.1986 27.4322 68.7317 39.0703 68.826C50.7084 68.9203 60.1225 71.54 60.0972 74.6774ZM61.8645 74.6917C61.8371 78.0922 51.589 80.766 38.9748 80.6638C26.3606 80.5617 16.157 77.7222 16.1844 74.3217C16.2119 70.9212 26.46 68.2474 39.0742 68.3496C51.6884 68.4517 61.892 71.2912 61.8645 74.6917ZM38.9954 78.0982C46.3537 78.1578 52.3318 76.5981 52.3478 74.6144C52.3638 72.6308 46.4117 70.9745 39.0534 70.9149C31.6951 70.8553 25.7171 72.415 25.7011 74.3986C25.6851 76.3822 31.6371 78.0386 38.9954 78.0982Z" fill="#EF4E35" fill-opacity="0.5"/>
<path d="M66.5 31.7275C66.5 53.9367 38 72.9732 38 72.9732C38 72.9732 9.5 53.9367 9.5 31.7275C9.5 24.1544 12.5027 16.8914 17.8475 11.5363C23.1922 6.18128 30.4413 3.17285 38 3.17285C45.5587 3.17285 52.8078 6.18128 58.1525 11.5363C63.4973 16.8914 66.5 24.1544 66.5 31.7275Z" fill="#EF4E35"/>
<path fill-rule="evenodd" clip-rule="evenodd" d="M49.7229 17.8051C49.3603 17.1698 48.9927 17 48.2748 17H29.4923C28.7744 17 28.4068 17.1698 28.0441 17.8051L22.6052 27.3329C22.3618 27.7591 22.249 28.1385 22.249 28.6328V31.7615C22.249 32.9419 22.6547 34.0312 23.3311 34.8912L23.3583 47.6792C23.3583 50.1001 25.3457 52.0625 27.7967 52.0625H49.9708C52.4218 52.0625 54.4093 50.1001 54.4093 47.6792L54.4365 34.8912C55.1128 34.0312 55.5185 32.9424 55.5185 31.7615V28.8433C55.5185 28.1294 55.4844 27.8977 55.1376 27.2896L49.7229 17.8051ZM52.2873 47.6792C52.2873 48.8889 51.1963 49.8704 49.9703 49.8709L38.1258 49.8704V39.406C38.1258 38.7057 37.5633 38.1328 36.8755 38.1328H31.4312C30.7435 38.1328 30.181 38.7057 30.181 39.406V49.8704H27.7972C26.5712 49.8699 25.4803 48.8884 25.4803 47.6787C25.4813 41.7417 25.4823 47.7881 25.4783 36.4727C27.4841 37.232 29.7525 36.576 31.0834 34.8267C33.055 37.4179 36.9127 37.4179 38.8843 34.8267C40.8559 37.4179 44.7135 37.4179 46.6851 34.8267C48.016 36.5755 50.284 37.2315 52.2902 36.4727C52.2853 47.7886 52.2863 41.7417 52.2873 47.6792ZM47.7172 31.761L47.6726 28.2922L46.1923 22.1037C45.7584 20.2874 43.9476 21.2311 44.1623 22.1037L45.6753 28.2509L45.6511 31.761C45.6511 35.5981 39.9163 35.5981 39.9163 31.761L39.8985 22.0443C39.897 20.6769 37.871 20.6769 37.8685 22.0443L37.8502 31.761C37.8502 35.5981 32.1155 35.5981 32.1155 31.761L32.1432 28.266L33.6562 22.1183C33.8709 21.2452 32.0606 20.3031 31.6262 22.1183L30.1459 28.3073L30.0499 31.761C30.0499 35.6233 24.3151 35.6233 24.3151 31.761L24.3329 28.3667L29.4571 19.1911H48.3104L53.3233 27.9566L53.4524 31.7615C53.4524 35.6238 47.7172 35.6238 47.7172 31.761Z" fill="white"/>
</svg>
