<svg width="63" height="63" viewBox="0 0 63 63" fill="none" xmlns="http://www.w3.org/2000/svg">
<g clip-path="url(#clip0)">
<path fill-rule="evenodd" clip-rule="evenodd" d="M30.9999 57.6899C48.0327 57.6899 61.8458 58.4311 61.8458 59.3454C61.8458 60.2597 48.0327 61.0009 30.9999 61.0009C13.9671 61.0009 0.154053 60.2597 0.154053 59.3454C0.154053 58.4311 13.9671 57.6899 30.9999 57.6899Z" fill="#DADADA"/>
<path fill-rule="evenodd" clip-rule="evenodd" d="M34.5943 47.8917L34.4479 49.6451L36.8866 49.7864L37.0967 48.2121L34.5943 47.8917Z" fill="#F7BA95"/>
<path fill-rule="evenodd" clip-rule="evenodd" d="M34.4945 49.0872C33.6842 49.3365 33.6601 51.2981 34.1509 51.8686C34.1535 51.872 34.1578 51.8753 34.1613 51.8778L42.5313 51.4696C42.6906 51.0831 42.4615 50.0174 41.5952 49.5581C40.865 49.1708 38.7191 49.0638 37.009 49.0428L36.9788 49.0997C36.9788 49.0997 36.3192 49.4762 35.4917 49.4134C34.6771 49.3507 34.4997 49.0955 34.4945 49.0872Z" fill="#4D408D"/>
<path fill-rule="evenodd" clip-rule="evenodd" d="M40.3794 51.575L42.5313 51.4696C42.6906 51.0831 42.7896 50.086 41.9233 49.6268C41.7072 49.5122 41.0381 49.3541 40.6222 49.283C40.3389 49.7196 40.1856 50.2416 40.2141 50.7962C40.2287 51.0698 40.2855 51.3316 40.3794 51.575Z" fill="#EDEDED"/>
<path fill-rule="evenodd" clip-rule="evenodd" d="M33.9071 51.3348C33.9622 51.5565 34.044 51.7455 34.1508 51.8685C34.1534 51.8719 34.1577 51.8744 34.1611 51.8777L42.5311 51.4695C42.5837 51.3423 42.594 51.1416 42.5535 50.9132L33.9071 51.3348Z" fill="#EDEDED"/>
<path fill-rule="evenodd" clip-rule="evenodd" d="M22.2347 29.4825C22.2347 29.4825 21.9118 33.8743 23.671 35.0763C25.432 36.2801 35.0644 35.4737 35.929 35.2989C35.929 35.2989 35.3038 37.2337 34.9292 40.9244C34.5546 44.6151 34.3238 47.9662 34.3238 47.9662C34.8732 48.4523 36.6161 48.6798 37.429 48.3686C37.429 48.3686 40.5221 35.6586 40.3447 33.7797C40.1665 31.9009 39.0574 31.276 36.7832 31.0602C34.509 30.8444 26.8804 30.0823 26.8804 30.0823L22.2347 29.4825Z" fill="#2F4F80"/>
<path fill-rule="evenodd" clip-rule="evenodd" d="M41.1611 17.6409C40.7503 17.5639 40.2871 18.2883 40.1269 19.2579C39.9667 20.2282 40.1699 21.0773 40.5807 21.1542C40.9915 21.2312 41.4547 20.5068 41.6149 19.5372C41.7751 18.5677 41.5718 17.7187 41.1611 17.6409Z" fill="#EDEDED"/>
<path fill-rule="evenodd" clip-rule="evenodd" d="M40.6109 21.1592C41.0139 21.1952 41.4582 20.4833 41.6141 19.538C41.7484 18.725 41.6279 17.9972 41.3428 17.737C40.9398 17.7011 40.4964 18.4129 40.3396 19.3582C40.2062 20.1713 40.3267 20.8991 40.6109 21.1592Z" fill="#C6C6C6"/>
<path fill-rule="evenodd" clip-rule="evenodd" d="M40.87 19.3982C40.87 19.3982 42.4123 20.2155 42.5578 20.6212C42.7034 21.0269 42.8937 23.0471 42.823 23.1684C42.7524 23.2897 42.5268 23.191 42.4709 23.1843C42.4149 23.1767 42.414 21.5321 42.2306 20.9416C42.0472 20.3501 40.7211 19.7018 40.7211 19.7018L40.87 19.3982Z" fill="#C6C6C6"/>
<path fill-rule="evenodd" clip-rule="evenodd" d="M45.7361 21.8802C45.7542 21.8828 45.7714 21.8853 45.7895 21.8886C46.6583 23.4671 46.8185 25.397 46.0564 27.1779C45.9703 27.3804 45.8739 27.5753 45.7688 27.7635C48.2549 27.3645 47.7597 22.1814 45.7361 21.8802Z" fill="#FFCC00"/>
<path fill-rule="evenodd" clip-rule="evenodd" d="M9.48778 49.1682C7.5167 49.1682 5.91762 50.7208 5.91762 52.6365C5.91762 54.5513 7.51584 56.1038 9.48778 56.1038C11.4589 56.1038 13.0571 54.5513 13.0571 52.6365C13.0571 50.7217 11.4589 49.1682 9.48778 49.1682ZM9.48778 45.6641C5.52409 45.6641 2.31042 48.7868 2.31042 52.6365C2.31042 56.4861 5.52409 59.6088 9.48778 59.6088C13.4506 59.6088 16.6651 56.4861 16.6651 52.6365C16.6651 48.7868 13.4506 45.6641 9.48778 45.6641Z" fill="#3E2823"/>
<path fill-rule="evenodd" clip-rule="evenodd" d="M12.6385 51.0054L11.191 51.4621C10.9266 51.1007 10.5435 50.8272 10.0965 50.695V49.2194C11.1988 49.4034 12.1288 50.0785 12.6385 51.0054ZM12.0538 55.0466L11.16 53.852C11.4209 53.5132 11.5759 53.0925 11.5759 52.6366L11.5751 52.5855L13.0191 52.1296C13.0441 52.2953 13.057 52.4642 13.057 52.6366C13.057 53.5726 12.6747 54.4225 12.0538 55.0466ZM7.90501 55.7451L8.79712 54.5514C9.01326 54.625 9.24576 54.6651 9.48773 54.6651C9.7297 54.6651 9.9622 54.625 10.1783 54.5514L11.0705 55.7442C10.5934 55.9743 10.0561 56.1031 9.48773 56.1031C8.9194 56.1039 8.38206 55.9743 7.90501 55.7451ZM5.95631 52.1296L7.4004 52.5855L7.39954 52.6366C7.39954 53.0925 7.55454 53.5132 7.81545 53.852L6.92162 55.0466C6.30076 54.4225 5.91756 53.5726 5.91756 52.6366C5.91756 52.4642 5.93134 52.2944 5.95631 52.1296ZM8.87806 49.2194V50.695C8.43115 50.8272 8.04795 51.1007 7.78359 51.4621L6.33606 51.0054C6.8467 50.0785 7.77584 49.4034 8.87806 49.2194ZM9.48773 48.0616C6.88718 48.0616 4.77917 50.1103 4.77917 52.6357C4.77917 55.1612 6.88804 57.2098 9.48773 57.2098C12.0874 57.2098 14.1963 55.1612 14.1963 52.6357C14.1963 50.1103 12.0883 48.0616 9.48773 48.0616Z" fill="#B3B1B1"/>
<path fill-rule="evenodd" clip-rule="evenodd" d="M9.48774 51.8561C9.04427 51.8561 8.68433 52.2057 8.68433 52.6366C8.68433 53.0674 9.04427 53.417 9.48774 53.417C9.93122 53.417 10.2912 53.0674 10.2912 52.6366C10.2912 52.2049 9.93122 51.8561 9.48774 51.8561Z" fill="#614438"/>
<path fill-rule="evenodd" clip-rule="evenodd" d="M54.8225 49.1682C52.8514 49.1682 51.2532 50.7208 51.2532 52.6365C51.2532 54.5513 52.8514 56.1038 54.8225 56.1038C56.7936 56.1038 58.3918 54.5513 58.3918 52.6365C58.3918 50.7217 56.7936 49.1682 54.8225 49.1682ZM54.8225 45.6641C50.8588 45.6641 47.6451 48.7868 47.6451 52.6365C47.6451 56.4861 50.8597 59.6088 54.8225 59.6088C58.7862 59.6088 61.9999 56.4861 61.9999 52.6365C61.9999 48.7868 58.7853 45.6641 54.8225 45.6641Z" fill="#3E2823"/>
<path fill-rule="evenodd" clip-rule="evenodd" d="M57.9735 51.0054L56.526 51.4621C56.2616 51.1007 55.8784 50.8272 55.4315 50.695V49.2194C56.5346 49.4034 57.4637 50.0785 57.9735 51.0054ZM57.3888 55.0466L56.495 53.852C56.7559 53.5132 56.9109 53.0925 56.9109 52.6366L56.91 52.5855L58.3532 52.1296C58.3782 52.2953 58.3911 52.4642 58.3911 52.6366C58.392 53.5726 58.0097 54.4225 57.3888 55.0466ZM53.24 55.7451L54.1321 54.5514C54.3482 54.625 54.5807 54.6651 54.8218 54.6651C55.0638 54.6651 55.2963 54.625 55.5124 54.5514L56.4046 55.7442C55.9275 55.9743 55.3902 56.1031 54.8218 56.1031C54.2544 56.1039 53.717 55.9743 53.24 55.7451ZM51.2913 52.1296L52.7354 52.5855L52.7345 52.6366C52.7345 53.0925 52.8895 53.5132 53.1504 53.852L52.2566 55.0466C51.6357 54.4225 51.2525 53.5726 51.2525 52.6366C51.2534 52.4642 51.2663 52.2944 51.2913 52.1296ZM54.213 49.2194V50.695C53.7661 50.8272 53.3829 51.1007 53.1186 51.4621L51.6719 51.0054C52.1817 50.0785 53.1108 49.4034 54.213 49.2194ZM54.8227 48.0616C52.2221 48.0616 50.1141 50.1103 50.1141 52.6357C50.1141 55.1612 52.223 57.2098 54.8227 57.2098C57.4232 57.2098 59.5312 55.1612 59.5312 52.6357C59.5312 50.1103 57.4232 48.0616 54.8227 48.0616Z" fill="#B3B1B1"/>
<path fill-rule="evenodd" clip-rule="evenodd" d="M54.8226 51.8561C54.3791 51.8561 54.0192 52.2057 54.0192 52.6366C54.0192 53.0674 54.3791 53.417 54.8226 53.417C55.2661 53.417 55.626 53.0674 55.626 52.6366C55.626 52.2049 55.2661 51.8561 54.8226 51.8561Z" fill="#614438"/>
<path fill-rule="evenodd" clip-rule="evenodd" d="M7.031 39.8629H3.92066C3.92066 39.8629 2.82189 41.9258 3.05094 42.462C3.28 42.9982 4.31247 42.948 4.31247 42.948L7.031 39.8629Z" fill="#FFCC00"/>
<path fill-rule="evenodd" clip-rule="evenodd" d="M8.97785 39.361H5.05376C5.05376 39.361 3.29021 41.9701 3.27901 42.9973C3.26782 44.0245 4.39846 44.0881 4.39846 44.0881L8.97785 39.361Z" fill="#B3B1B1"/>
<path fill-rule="evenodd" clip-rule="evenodd" d="M27.9422 12.6125L26.6919 14.693C26.7134 14.688 29.0315 16.4915 29.2106 16.5333L30.3335 13.9652L27.9422 12.6125Z" fill="#F7C8AB"/>
<path fill-rule="evenodd" clip-rule="evenodd" d="M35.154 8.46087C35.3675 13.2374 34.0449 15.8841 28.0619 13.4925L28.526 9.65709L30.566 8.02588L35.154 8.46087Z" fill="#F7C8AB"/>
<path fill-rule="evenodd" clip-rule="evenodd" d="M37.015 6.89647C35.1541 8.46159 30.5118 3.73526 29.0135 6.18124C29.0135 6.18124 27.4291 6.59114 26.8504 8.00904C26.2709 9.42777 27.5944 13.4347 27.5944 13.4347L29.2925 11.8545C28.0284 10.6223 29.8316 9.57583 30.3069 11.0607L31.1792 9.2086C33.0564 9.92383 37.058 10.0769 37.015 6.89647Z" fill="#2F2F2E"/>
<path fill-rule="evenodd" clip-rule="evenodd" d="M30.0871 12.9998C30.3394 13.7326 30.6468 14.4043 31.6534 14.5164C31.6534 14.5164 31.4364 14.6996 31.1747 14.6904C30.472 14.6644 29.8253 14.1675 29.6531 13.4306L30.0871 12.9998Z" fill="#2F2F2E"/>
<path fill-rule="evenodd" clip-rule="evenodd" d="M35.6198 7.18088C31.781 7.2202 30.5186 9.03795 30.6142 12.3037C30.6504 13.5418 30.2198 13.5869 29.0659 13.4941C25.0936 13.1745 22.785 6.48824 27.5228 3.80553C31.5253 1.5394 36.3061 4.50068 35.6198 7.18088Z" fill="#EF4E35"/>
<path fill-rule="evenodd" clip-rule="evenodd" d="M35.6199 7.1809C31.7811 7.22022 30.5187 9.03797 30.6143 12.3037C30.6504 13.5418 30.2199 13.587 29.0668 13.4941C28.5614 13.4531 28.0835 13.3092 27.6434 13.0842C28.5175 13.213 29.4957 13.2641 29.872 12.942C30.6151 12.3037 29.7196 9.82932 31.5245 7.96304C32.7429 6.70325 34.6021 6.67899 35.6828 6.7961C35.6724 6.92409 35.6526 7.05291 35.6199 7.1809Z" fill="#C51315"/>
<path fill-rule="evenodd" clip-rule="evenodd" d="M28.9014 9.41455C29.5361 9.41539 30.0502 9.91646 30.0493 10.5338C30.0485 11.1503 29.5326 11.6497 28.8971 11.6489C28.2625 11.6481 27.7484 11.147 27.7493 10.5296C27.751 9.91312 28.2668 9.41372 28.9014 9.41455Z" fill="#2F2F2E"/>
<path fill-rule="evenodd" clip-rule="evenodd" d="M41.4711 24.5671C41.4711 24.5671 40.1149 24.4341 38.7586 24.6407C37.4024 24.8482 31.6967 23.2596 31.1318 23.0974C30.5669 22.9342 29.1581 19.5547 29.1581 19.5547L26.7686 20.8555C26.7686 20.8555 28.9876 24.2727 29.9047 24.8072C30.8209 25.3417 37.2155 26.0486 37.9793 26.108C38.7431 26.1674 41.3919 25.7633 41.3919 25.7633L41.4711 24.5671Z" fill="#F7BA95"/>
<path fill-rule="evenodd" clip-rule="evenodd" d="M41.1464 30.6921C41.1464 30.6921 39.0995 27.0716 38.9773 25.9741C38.855 24.8757 42.4897 23.8075 42.4897 23.8075L44.9336 28.9111L42.7954 31.0476L41.1464 30.6921Z" fill="#C51315"/>
<path fill-rule="evenodd" clip-rule="evenodd" d="M4.58111 45.2057C4.58111 45.2057 3.60461 46.5675 2.01586 48.8521C0.427972 51.1375 0 52.1463 0 52.1463C0 52.1463 0.824944 52.6507 2.50497 50.9894C4.185 49.3272 8.09444 46.9833 8.09444 46.9833L4.58111 45.2057Z" fill="#3E2823"/>
<path fill-rule="evenodd" clip-rule="evenodd" d="M51.4403 42.5916C54.6815 42.3014 59.9747 44.6035 61.5204 48.1704C53.4191 47.0202 52.75 48.5761 48.1103 51.6419C46.5819 52.6524 44.8416 52.087 44.8416 52.087L51.4403 42.5916Z" fill="#EF4E35"/>
<path fill-rule="evenodd" clip-rule="evenodd" d="M51.4402 42.5917C52.4064 42.5055 53.5543 42.6494 54.7314 42.9882C54.0115 43.4182 53.3175 44.0506 52.9911 44.9657C52.6148 46.0214 52.4744 47.5021 52.4314 48.8012C51.1432 49.4671 49.9333 50.4383 48.1103 51.6428C46.5819 52.6534 44.8416 52.0879 44.8416 52.0879L51.4402 42.5917Z" fill="#C51315"/>
<path fill-rule="evenodd" clip-rule="evenodd" d="M44.9345 28.9113L41.1465 30.6914C41.1465 30.6914 40.8106 31.2853 41.391 32.709C41.9714 34.1336 43.3767 36.5963 43.7737 39.5635C44.1707 42.5306 44.1707 49.6226 40.6272 49.7414C37.0837 49.8602 32.2271 49.8602 32.2271 49.8602C32.2271 49.8602 31.2049 49.7891 30.4584 49.3892C29.7118 48.9894 29.4474 48.4063 29.4474 48.4063L16.7099 45.0828L1.95471 45.2326L2.01585 46.7458C2.01585 46.7458 6.87252 47.9328 11.0274 48.7342C15.1814 49.5356 16.4644 49.7431 16.4644 49.7431L16.827 51.0581C16.827 51.0581 25.3537 53.2155 33.5093 53.5124C41.6649 53.8094 44.1698 52.9193 44.1698 52.9193C44.1698 52.9193 48.0491 50.3378 49.271 46.0649C50.493 41.792 51.5616 40.3975 49.6379 36.7176C47.7142 33.0361 44.9345 28.9113 44.9345 28.9113Z" fill="#3E2823"/>
<path fill-rule="evenodd" clip-rule="evenodd" d="M32.86 47.9886L32.6232 49.7336L35.0524 49.9929L35.3426 48.4312L32.86 47.9886Z" fill="#F7C8AB"/>
<path fill-rule="evenodd" clip-rule="evenodd" d="M32.6991 49.1783C31.8767 49.3875 31.751 51.3458 32.2125 51.9397C32.2151 51.943 32.2194 51.9464 32.222 51.9497H40.6024C40.7815 51.5716 40.6075 50.4959 39.7662 49.9956C39.0575 49.5732 36.9194 49.3615 35.2127 49.2578L35.1791 49.313C35.1791 49.313 34.5005 49.6568 33.6773 49.5539C32.8678 49.4502 32.7042 49.1867 32.6991 49.1783Z" fill="#484B98"/>
<path fill-rule="evenodd" clip-rule="evenodd" d="M38.4477 51.9489H40.6023C40.7814 51.5708 40.9312 50.5795 40.0908 50.0784C39.8806 49.9538 39.221 49.7622 38.8085 49.6719C38.5028 50.0935 38.3229 50.6079 38.3229 51.1634C38.3229 51.4378 38.3668 51.7013 38.4477 51.9489Z" fill="white"/>
<path fill-rule="evenodd" clip-rule="evenodd" d="M31.9962 51.3942C32.0401 51.6184 32.1125 51.8108 32.2115 51.9387C32.2141 51.9421 32.2184 51.9454 32.221 51.9488H40.6013C40.6607 51.8241 40.6814 51.6242 40.6521 51.3942H31.9962Z" fill="white"/>
<path fill-rule="evenodd" clip-rule="evenodd" d="M44.9345 28.9113C44.9345 28.9113 44.2017 29.9201 44.9957 31.6417C45.7896 33.3624 50.1382 39.5392 49.0377 42.8652C47.9372 46.1904 45.973 51.8795 42.3073 53.0072C38.6416 54.1348 22.2684 52.1171 22.2684 52.1171C22.2684 52.1171 21.5967 55.203 26.1176 55.2624C30.6384 55.3218 41.8793 56.2119 45.118 53.9566C48.3557 51.7014 53.7325 42.7397 53.5491 40.8408C53.3648 38.9419 44.9345 28.9113 44.9345 28.9113Z" fill="#EF4E35"/>
<path fill-rule="evenodd" clip-rule="evenodd" d="M22.468 53.6077C22.846 54.4057 23.7984 55.2314 26.1165 55.2623C30.0148 55.3133 38.9075 55.9817 43.3594 54.7202C37.7906 55.182 28.0136 54.6851 22.468 53.6077Z" fill="#C51315"/>
<path fill-rule="evenodd" clip-rule="evenodd" d="M31.0052 39.0004H7.36163C6.26974 39.2513 2.52735 42.8383 1.95471 45.2316C6.94399 46.4495 22.8651 48.7583 29.4465 48.407C25.8015 44.2537 31.0611 41.7584 31.0052 39.0004Z" fill="#EF4E35"/>
<path fill-rule="evenodd" clip-rule="evenodd" d="M24.3953 48.3209C24.8895 48.3511 25.37 48.3761 25.8342 48.3954C26.1364 47.6157 26.2983 46.8227 26.2983 46.0322C26.2983 41.1938 20.2593 38.2986 12.8133 39.5676C9.19923 40.1833 5.91754 41.6664 3.49609 43.5837C5.73154 42.0211 8.58182 40.8265 11.6878 40.297C18.86 39.0757 24.6768 41.8638 24.6768 46.5232C24.6751 47.123 24.5778 47.7253 24.3953 48.3209Z" fill="#C51315"/>
<path fill-rule="evenodd" clip-rule="evenodd" d="M18.718 20.1085H5.05391C2.98724 20.1085 1.29602 21.7514 1.29602 23.7591V34.8204C1.29602 36.828 2.98724 38.4709 5.05391 38.4709H18.718V20.1085Z" fill="#EF4E35"/>
<path d="M18.7178 20.1085H18.1099V38.4709H18.7178V20.1085Z" fill="#C51315"/>
<path fill-rule="evenodd" clip-rule="evenodd" d="M18.7179 20.1085H5.05379C4.36145 20.1085 3.71217 20.2926 3.15417 20.613H18.7179V20.1085Z" fill="#F08262"/>
<path fill-rule="evenodd" clip-rule="evenodd" d="M2.36633 37.3641C3.05006 38.0459 4.0033 38.47 5.05386 38.47H18.718V37.3641H2.36633Z" fill="#C51315"/>
<path d="M18.718 24.7535H1.29602V25.4169H18.718V24.7535Z" fill="#C51315"/>
<path d="M31.0042 38.1405H7.36157V39.0004H31.0042V38.1405Z" fill="#EF4E35"/>
<path d="M31.0042 38.7637H7.36157V39.0012H31.0042V38.7637Z" fill="#C51315"/>
<path fill-rule="evenodd" clip-rule="evenodd" d="M31.0051 38.1404H19.573V35.2318C19.573 34.6279 20.0828 34.0933 20.7036 34.1335L28.9428 34.668C30.0743 34.7416 31.0051 35.5698 31.0051 36.6715V38.1404Z" fill="#3E2823"/>
<path fill-rule="evenodd" clip-rule="evenodd" d="M20.6555 34.1327C20.6719 34.1327 20.6874 34.1335 20.7037 34.1344L28.9429 34.6689C30.0744 34.7425 31.0052 35.5707 31.0052 36.6724V36.9024C30.07 37.1868 29.0746 37.3399 28.043 37.3399C25.1083 37.3391 22.4716 36.1002 20.6555 34.1327Z" fill="#372621"/>
<path fill-rule="evenodd" clip-rule="evenodd" d="M9.44202 50.531C8.28554 50.5762 7.36157 51.5014 7.36157 52.6357C7.36157 53.77 8.28554 54.696 9.44202 54.7404V54.742L19.5704 55.1344C19.6393 55.1394 19.709 55.1427 19.7788 55.1427C21.2039 55.1427 22.3604 54.0201 22.3604 52.6349C22.3604 51.2504 21.2048 50.1278 19.7788 50.1278C19.709 50.1278 19.6393 50.1303 19.5713 50.1362L9.44202 50.531Z" fill="#616365"/>
<path fill-rule="evenodd" clip-rule="evenodd" d="M21.4666 29.0006C21.4666 29.0006 20.9172 33.3706 22.6119 34.658C24.3091 35.9462 33.9699 35.6099 34.8422 35.4778C34.8422 35.4778 34.118 37.3792 33.5531 41.0473C32.9882 44.7146 32.5852 48.0515 32.5852 48.0515C33.1088 48.5634 34.8379 48.8763 35.6663 48.6044C35.6663 48.6044 39.4121 36.0617 39.3312 34.1761C39.2502 32.2906 38.1747 31.6122 35.9143 31.286C33.6539 30.9597 26.0744 29.8271 26.0744 29.8271L21.4666 29.0006Z" fill="#486898"/>
<path fill-rule="evenodd" clip-rule="evenodd" d="M45.9411 21.6979C45.6776 21.6017 45.4098 21.539 45.1428 21.5081C45.1626 21.5106 45.1824 21.5131 45.2022 21.5156C46.2261 23.2371 46.4775 25.3744 45.6991 27.3796C45.6104 27.6071 45.5114 27.8271 45.4012 28.0396C45.7439 27.9735 46.0745 27.8564 46.3794 27.6933C46.3871 27.6749 46.3949 27.6556 46.4018 27.6372C47.1664 25.6672 47.033 23.5818 46.2003 21.805C46.1167 21.7657 46.0298 21.7297 45.9411 21.6979Z" fill="#E5E7EF"/>
<path fill-rule="evenodd" clip-rule="evenodd" d="M45.2023 21.5148C43.6618 21.3081 42.1247 22.153 41.5529 23.6261C40.8898 25.336 41.7785 27.2449 43.5386 27.889C44.1561 28.1149 44.7984 28.1551 45.4021 28.0388C45.5115 27.8263 45.6113 27.6055 45.7 27.3788C46.4768 25.3736 46.2262 23.2363 45.2023 21.5148Z" fill="#EF4E35"/>
<path fill-rule="evenodd" clip-rule="evenodd" d="M41.4109 24.092C41.0561 25.6697 41.937 27.3034 43.5378 27.8898C44.1552 28.1157 44.7976 28.1558 45.4013 28.0396C45.5106 27.8271 45.6105 27.6063 45.6992 27.3796C45.961 26.7045 46.1065 26.0144 46.1444 25.3301C45.2041 25.2891 44.2078 25.1611 43.2649 24.8809C42.5596 24.6701 41.9439 24.3949 41.4109 24.092Z" fill="#C51315"/>
<path fill-rule="evenodd" clip-rule="evenodd" d="M40.7487 26.256C40.6539 26.256 40.5627 26.2735 40.4791 26.3045C40.4499 26.3154 40.4206 26.3288 40.393 26.343L38.3014 27.3752L38.9274 28.6961L41.063 27.6421C41.3196 27.5267 41.497 27.2749 41.497 26.9821C41.4978 26.5814 41.162 26.256 40.7487 26.256Z" fill="#3E2823"/>
<path fill-rule="evenodd" clip-rule="evenodd" d="M25.8988 13.9919C25.0032 14.8526 23.3619 16.7281 22.8375 19.318C22.103 22.9451 20.1862 30.6938 20.1862 30.6938C20.1862 30.6938 22.3699 31.2593 25.4699 31.2559C28.5699 31.2526 29.4087 29.8999 29.4087 29.8999C29.4087 29.8999 30.0493 23.2839 30.3593 20.2122C30.6693 17.1405 29.3234 15.8799 29.3234 15.8799L26.9812 13.8773C26.3948 13.377 26.5024 13.4113 25.8988 13.9919Z" fill="#EF4E35"/>
<path fill-rule="evenodd" clip-rule="evenodd" d="M26.2123 13.6632L25.5768 14.1065C26.7384 15.0543 29.2942 16.4805 30.5678 17.9955C30.5678 17.9955 30.9312 16.6729 29.9461 15.7887C29.2072 15.1254 27.6366 14.1492 26.8986 13.7025C26.5025 13.4649 26.5688 13.4147 26.2123 13.6632Z" fill="#C51315"/>
<path fill-rule="evenodd" clip-rule="evenodd" d="M29.754 23.3617C29.9331 23.4955 36.7239 26.0628 37.8192 26.0511C38.7638 26.0411 38.918 25.9081 39.414 25.9892C39.91 26.0703 40.4232 26.0821 41.15 26.5446C41.8767 27.0081 41.6425 27.6572 41.5599 27.6806C41.4772 27.7032 41.4806 27.3837 41.2671 27.1093C41.0535 26.8349 40.2587 26.6743 40.2587 26.6743C40.2587 26.6743 40.8667 26.8491 41.044 27.1996C41.2214 27.5501 41.0785 28.2813 40.9433 28.2662C40.8072 28.2511 40.9011 27.8036 40.7926 27.5836C40.685 27.3644 40.0262 26.9495 40.0262 26.9495C40.0262 26.9495 40.536 27.377 40.5842 27.766C40.6316 28.1549 40.3552 28.6401 40.2596 28.5272C40.164 28.4143 40.3224 27.858 40.2243 27.6246C40.1261 27.392 39.6938 27.2682 39.6938 27.2682C39.6938 27.2682 40.0348 27.4288 40.108 27.7174C40.1812 28.006 40.0977 28.4402 39.9952 28.5883C39.8927 28.7355 39.9151 28.2537 39.73 27.9023C39.5449 27.551 38.9447 27.4673 38.9447 27.4673C38.9447 27.4673 38.4909 27.423 38.2325 27.7166C37.9742 28.0102 37.5462 28.037 37.1518 27.6957C36.7574 27.3544 36.0022 27.0959 35.4976 26.9905C34.993 26.8851 29.2615 26.0528 28.4839 25.6395C27.7054 25.2263 25.9436 21.5531 25.9436 21.5531L28.5838 20.6514L29.754 23.3617Z" fill="#F7C8AB"/>
<path fill-rule="evenodd" clip-rule="evenodd" d="M38.6752 27.2849C38.2618 27.2849 37.9269 27.6103 37.9269 28.0118C37.9269 28.4134 38.2618 28.7388 38.6752 28.7388C39.0885 28.7388 39.4235 28.4134 39.4235 28.0118C39.4235 27.6103 39.0885 27.2849 38.6752 27.2849Z" fill="#3E2823"/>
<path fill-rule="evenodd" clip-rule="evenodd" d="M26.9347 16.4186C23.5377 16.1526 25.4864 22.6423 25.7438 23.3031L29.6231 22.2349C29.4948 20.7375 28.8266 16.5667 26.9347 16.4186Z" fill="#C51315"/>
<path fill-rule="evenodd" clip-rule="evenodd" d="M7.32458 42.0428C12.4448 39.7951 20.937 39.5475 22.6894 43.9124C19.7659 40.0753 9.85022 41.489 7.32458 42.0428Z" fill="#F08262"/>
<path fill-rule="evenodd" clip-rule="evenodd" d="M60.1969 47.0493C58.0338 45.0977 56.2349 44.1825 54.0864 43.4966C56.9513 43.873 59.1489 45.5921 60.1969 47.0493Z" fill="#F08262"/>
<path fill-rule="evenodd" clip-rule="evenodd" d="M50.4068 37.6001C50.0632 37.7891 49.9418 38.2166 50.1364 38.5503L51.2361 40.435C51.4307 40.7688 51.8707 40.8867 52.2143 40.6977C52.5579 40.5086 52.6793 40.0812 52.4847 39.7474L51.385 37.8627C51.1904 37.529 50.7504 37.411 50.4068 37.6001Z" fill="#FFCC00"/>
<path fill-rule="evenodd" clip-rule="evenodd" d="M38.8974 20.3042C38.2989 20.3042 37.734 21.1081 37.6367 22.0994C37.5394 23.0906 37.9458 23.8945 38.5452 23.8945C39.1436 23.8945 39.7085 23.0906 39.8058 22.0994C39.9023 21.1089 39.4958 20.3042 38.8974 20.3042Z" fill="#EDEDED"/>
<path fill-rule="evenodd" clip-rule="evenodd" d="M38.5899 23.8936C39.1711 23.8542 39.7102 23.0662 39.8049 22.1001C39.8867 21.2694 39.6137 20.5701 39.1711 20.366C38.5899 20.4053 38.0508 21.1933 37.9561 22.1595C37.8752 22.9893 38.1473 23.6886 38.5899 23.8936Z" fill="#C6C6C6"/>
<path fill-rule="evenodd" clip-rule="evenodd" d="M38.7208 22.1002C38.7208 22.1002 40.3612 22.7117 40.561 23.0957C40.7607 23.4788 41.2249 25.4572 41.1715 25.5868C41.1172 25.7165 40.8813 25.647 40.8245 25.6479C40.7676 25.6479 40.5429 24.0184 40.2802 23.4554C40.0176 22.8932 38.6149 22.4214 38.6149 22.4214L38.7208 22.1002Z" fill="#C6C6C6"/>
</g>
<defs>
<clipPath id="clip0">
<rect width="62" height="58" fill="white" transform="translate(0 3)"/>
</clipPath>
</defs>
</svg>
