<?xml version="1.0" encoding="utf-8"?>
<!-- Generator: Adobe Illustrator 22.0.0, SVG Export Plug-In . SVG Version: 6.00 Build 0)  -->
<svg version="1.1" id="Capa_1" xmlns="http://www.w3.org/2000/svg" xmlns:xlink="http://www.w3.org/1999/xlink" x="0px" y="0px"
	 viewBox="0 0 97.086 115.687" enable-background="new 0 0 97.086 115.687" xml:space="preserve">
<g>
	<path fill="#46464F" d="M91.943,123.857H5.143c-6.6,0-12-5.4-12-12V3.829c0-6.6,5.4-12,12-12h86.801c6.6,0,12,5.4,12,12v108.028
		C103.943,118.457,98.543,123.857,91.943,123.857z"/>
	<g opacity="0.15">
		<path fill="#FFFFFF" d="M48.543,54.708c7.661,0,13.894-6.232,13.894-13.894c0-7.661-6.232-13.894-13.894-13.894
			c-7.661,0-13.894,6.233-13.894,13.894C34.649,48.475,40.882,54.708,48.543,54.708z M48.543,29.363
			c6.314,0,11.45,5.137,11.45,11.451c0,6.314-5.137,11.45-11.45,11.45c-6.314,0-11.451-5.137-11.451-11.45
			C37.092,34.5,42.229,29.363,48.543,29.363z"/>
		<path fill="#FFFFFF" d="M60.556,58.18c0.305,0.173,0.609,0.337,0.915,0.522c6.041,3.674,12.975,10.272,12.975,28.843
			c0,0.675,0.547,1.222,1.222,1.222s1.222-0.547,1.222-1.222c0-19.788-7.561-26.924-14.149-30.93
			c-8.803-5.354-17.382-5.76-26.151-1.247c-0.135,0.031-0.268,0.081-0.391,0.161c-0.046,0.03-0.086,0.066-0.127,0.101
			c-0.574,0.308-1.149,0.635-1.725,0.985c-6.588,4.006-14.149,11.142-14.149,30.93c0,0.675,0.547,1.222,1.222,1.222
			c0.675,0,1.222-0.547,1.222-1.222c0-18.57,6.934-25.169,12.975-28.843c0.287-0.175,0.573-0.328,0.86-0.491"/>
	</g>
</g>
</svg>
