<?xml version="1.0" encoding="utf-8"?>
<!-- Generator: Adobe Illustrator 16.0.0, SVG Export Plug-In . SVG Version: 6.00 Build 0)  -->
<!DOCTYPE svg PUBLIC "-//W3C//DTD SVG 1.1//EN" "http://www.w3.org/Graphics/SVG/1.1/DTD/svg11.dtd">
<svg version="1.1" id="Capa_1" xmlns="http://www.w3.org/2000/svg" xmlns:xlink="http://www.w3.org/1999/xlink" x="0px" y="0px"
	 width="78.167px" height="78.167px" viewBox="0 0 78.167 78.167" enable-background="new 0 0 78.167 78.167" xml:space="preserve">
<circle fill="#46464F" cx="39.083" cy="39.083" r="39.083"/>
<g>
	<linearGradient id="SVGID_1_" gradientUnits="userSpaceOnUse" x1="30.8423" y1="32.4312" x2="45.9209" y2="32.4312">
		<stop  offset="0" style="stop-color:#EF4E35"/>
		<stop  offset="1" style="stop-color:#EF5B35"/>
	</linearGradient>
	<path fill="url(#SVGID_1_)" d="M38.262,41.754h0.006h0.227c2.117-0.035,3.84-0.783,5.115-2.219
		c2.736-3.086,2.311-8.303,2.254-8.869c-0.182-3.845-2.014-5.679-3.52-6.541c-1.127-0.646-2.43-0.99-3.883-1.018h-0.119
		c-0.799,0-2.367,0.128-3.881,0.99c-1.525,0.863-3.381,2.705-3.561,6.551c-0.059,0.584-0.484,5.801,2.252,8.886
		C34.422,40.971,36.141,41.719,38.262,41.754 M33.407,30.901l0.01-0.086c0.207-4.498,3.172-5.17,4.994-5.17
		c2.143,0.048,4.738,0.983,4.93,5.154l0.006,0.135l0.008,0.015c0.045,0.517,0.34,4.69-1.631,6.907
		c-0.805,0.908-1.889,1.354-3.379,1.367c-1.426-0.013-2.506-0.459-3.305-1.367C32.971,35.534,33.389,31.07,33.407,30.901"/>
	<linearGradient id="SVGID_2_" gradientUnits="userSpaceOnUse" x1="23.8618" y1="49.0854" x2="52.9146" y2="49.0854">
		<stop  offset="0" style="stop-color:#EF4E35"/>
		<stop  offset="1" style="stop-color:#EF5B35"/>
	</linearGradient>
	<path fill="url(#SVGID_2_)" d="M52.913,49.944l-0.332,0.006l0.332-0.021l-0.004-0.101l-0.332,0.02l0.328-0.111
		c-0.043-1.434-0.145-4.791-3.357-5.887l-0.092-0.027c-3.063-0.781-5.6-2.543-5.627-2.562c-0.275-0.195-0.613-0.269-0.945-0.212
		c-0.332,0.06-0.623,0.244-0.816,0.52c-0.4,0.569-0.264,1.36,0.307,1.764c0.119,0.082,2.92,2.031,6.391,2.922
		c1.408,0.502,1.57,2.039,1.617,3.558c0,0.077,0.002,0.146,0.008,0.177c0.006,0.586-0.031,1.397-0.111,1.918
		c-1.328,0.729-5.529,2.715-11.887,2.715c-6.324,0-10.555-1.992-11.891-2.722c-0.086-0.538-0.125-1.37-0.109-1.983l0.004-0.101
		c0.047-1.53,0.211-3.067,1.59-3.559c3.117-0.802,5.676-2.431,6.416-2.934c0.277-0.194,0.463-0.483,0.52-0.815
		c0.059-0.333-0.016-0.67-0.209-0.946c-0.404-0.571-1.195-0.708-1.766-0.306c-0.025,0.018-2.555,1.779-5.623,2.56l-0.098,0.029
		c-3.209,1.101-3.309,4.452-3.354,5.905c0,0.047,0,0.09-0.008,0.187c-0.004,0.226-0.029,2.231,0.375,3.257
		c0.096,0.25,0.268,0.456,0.484,0.592c0.053,0.034,5.154,3.359,13.676,3.359c8.141,0,13.123-3.01,13.674-3.357
		c0.223-0.146,0.395-0.357,0.486-0.597C52.944,52.168,52.917,50.168,52.913,49.944"/>
</g>
</svg>
