<?xml version="1.0" encoding="utf-8"?>
<!-- Generator: Adobe Illustrator 16.0.0, SVG Export Plug-In . SVG Version: 6.00 Build 0)  -->
<!DOCTYPE svg PUBLIC "-//W3C//DTD SVG 1.1//EN" "http://www.w3.org/Graphics/SVG/1.1/DTD/svg11.dtd">
<svg version="1.1" id="Capa_1" xmlns="http://www.w3.org/2000/svg" xmlns:xlink="http://www.w3.org/1999/xlink" x="0px" y="0px"
	 width="369.533px" height="379.209px" viewBox="0 0 369.533 379.209" enable-background="new 0 0 369.533 379.209"
	 xml:space="preserve">
<linearGradient id="SVGID_1_" gradientUnits="userSpaceOnUse" x1="60.1465" y1="73.2109" x2="333.1465" y2="278.2109">
	<stop  offset="0" style="stop-color:#EF4E35"/>
	<stop  offset="1" style="stop-color:#EF5B35"/>
</linearGradient>
<path fill="url(#SVGID_1_)" d="M10.901,280.441c11,25.326,42,73.326,126,76.326s149,63.16,180-26.92s61-51.221,43-133.15
	c-18-81.929,35-112.929-7-165.929s-244-24-271-12s-94,80.59-80,136.795C15.901,211.767-0.099,255.115,10.901,280.441z"/>
<linearGradient id="SVGID_2_" gradientUnits="userSpaceOnUse" x1="197.6377" y1="366.2183" x2="393.6377" y2="222.2183">
	<stop  offset="0" style="stop-color:#EF4E35"/>
	<stop  offset="1" style="stop-color:#EF5B35"/>
</linearGradient>
<path fill="url(#SVGID_2_)" d="M359.901,196.697c-0.665-3.026-1.222-5.975-1.701-8.865L114.47,354.765
	c7.022,1.031,14.489,1.719,22.431,2.002c84,3,149,63.16,180-26.92S377.901,278.626,359.901,196.697z"/>
</svg>
