<?xml version="1.0" encoding="utf-8"?>
<!-- Generator: Adobe Illustrator 16.0.0, SVG Export Plug-In . SVG Version: 6.00 Build 0)  -->
<!DOCTYPE svg PUBLIC "-//W3C//DTD SVG 1.1//EN" "http://www.w3.org/Graphics/SVG/1.1/DTD/svg11.dtd">
<svg version="1.1" id="Capa_1" xmlns="http://www.w3.org/2000/svg" xmlns:xlink="http://www.w3.org/1999/xlink" x="0px" y="0px"
	 width="72.165px" height="72.157px" viewBox="0 0 72.165 72.157" enable-background="new 0 0 72.165 72.157" xml:space="preserve">
<path fill="#FFFFFF" d="M35.301,47.117h3.4c0-0.405-0.004-0.825,0.001-1.244c0.022-1.675,0.572-2.272,2.248-2.275
	c6.604-0.017,13.205-0.008,19.809-0.008c1.406,0,2.813-0.028,4.219,0.008c1.512,0.039,2.095,0.655,2.097,2.188
	c0.008,6.798,0.008,13.596-0.001,20.394c-0.002,1.51-0.631,2.146-2.136,2.146c-18.598,0.005-37.195,0.005-55.792,0
	c-1.248-0.001-2.053-0.551-2.065-1.598c-0.032-2.966-0.225-5.966,0.13-8.894c0.651-5.389,4.264-9.137,9.542-10.434
	c0.26-0.063,0.515-0.152,0.843-0.25c0-0.637,0.083-1.273-0.027-1.874c-0.087-0.479-0.293-1.063-0.648-1.347
	c-4.296-3.417-6.406-7.844-6.364-13.328c0.024-3.243-0.013-6.485,0.007-9.729c0.046-7.225,5.383-12.553,12.624-12.569
	c2.809-0.006,5.655-0.184,8.422,0.187c5.781,0.774,10.038,5.017,10.465,10.79c0.349,4.733,0.205,9.532-0.114,14.275
	c-0.265,3.934-2.297,7.238-5.362,9.677C35.215,44.335,35.001,45.447,35.301,47.117 M42.262,64.726h21.225V54.249H42.262V64.726z
	 M14.145,22.284h24.492c0.494-6.402-3.269-10.468-9.607-10.47c-1.759,0-3.517,0-5.275,0C17.403,11.816,13.648,15.872,14.145,22.284
	 M14.255,28.367C13.38,34,15.648,39.101,20.022,41.78c4.218,2.583,9.6,2.352,13.568-0.568c3.703-2.726,5.794-7.282,4.917-12.693
	c-1.178,1.19-2.233,2.4-3.446,3.425c-0.598,0.504-1.48,0.921-2.243,0.937c-4.142,0.091-8.286,0.008-12.427,0.066
	c-1.229,0.018-2.178-0.292-2.99-1.236C16.446,30.6,15.396,29.57,14.255,28.367 M24.631,64.763c0-2.587,0.026-5.042-0.024-7.496
	c-0.009-0.404-0.268-0.884-0.558-1.185c-1.54-1.603-3.159-3.13-4.684-4.747c-0.57-0.605-1.144-0.696-1.877-0.511
	c-3.144,0.794-5.347,2.676-6.425,5.735c-0.941,2.674-0.365,5.45-0.492,8.203H24.631z M28.156,64.73h10.545V53.192
	c0-2.568-0.002-2.493-2.613-2.586c-1.403-0.051-2.418,0.343-3.351,1.405c-1.259,1.433-2.695,2.708-4.019,4.087
	c-0.27,0.281-0.531,0.711-0.538,1.08C28.134,59.668,28.156,62.16,28.156,64.73 M63.52,47.206H42.293v3.321H63.52V47.206z
	 M16.885,25.954c-0.061,0.083-0.122,0.166-0.184,0.249c1.041,0.981,2.067,1.976,3.134,2.928c0.201,0.18,0.56,0.259,0.846,0.26
	c3.789,0.017,7.579,0.017,11.369,0.001c0.29,0,0.658-0.052,0.856-0.229c1.088-0.97,2.136-1.987,3.196-2.986
	c-0.069-0.074-0.139-0.148-0.209-0.223H16.885z M31.548,46.253c-3.428,1.129-6.878,1.102-10.524-0.063
	c0.12,0.827-0.021,1.706,0.354,2.121c1.581,1.754,3.315,3.371,5.081,5.123c1.453-1.484,2.792-2.96,4.252-4.304
	C31.596,48.315,31.866,47.448,31.548,46.253"/>
<path fill="#FFFFFF" d="M56.497,57.699c0.661,0,1.328-0.057,1.981,0.014c0.997,0.108,1.548,0.742,1.539,1.728
	c-0.009,0.927-0.538,1.604-1.474,1.662c-1.394,0.087-2.802,0.09-4.193-0.009c-0.94-0.067-1.428-0.763-1.416-1.701
	c0.013-0.94,0.524-1.558,1.466-1.667c0.69-0.081,1.397-0.017,2.097-0.017C56.497,57.707,56.497,57.704,56.497,57.699"/>
<path fill="#FFFFFF" d="M26.364,18.848c-1.092,0-2.186,0.02-3.276-0.005c-1.183-0.027-1.945-0.715-1.965-1.72
	c-0.02-1.008,0.745-1.768,1.899-1.783c2.223-0.029,4.448-0.029,6.671-0.004c1.183,0.013,1.944,0.717,1.964,1.721
	c0.021,1.045-0.773,1.764-2.016,1.787C28.55,18.864,27.457,18.848,26.364,18.848"/>
<path fill="#FFFFFF" d="M26.405,41.542c-1.739-0.056-3.289-0.597-4.568-1.806c-0.834-0.788-0.948-1.716-0.331-2.495
	c0.629-0.795,1.642-0.865,2.596-0.18c1.743,1.25,2.825,1.251,4.549,0.009c0.96-0.69,1.965-0.634,2.604,0.148
	c0.651,0.795,0.518,1.759-0.375,2.577C29.615,40.953,28.097,41.473,26.405,41.542"/>
<path fill="#FFFFFF" d="M17.541,61.122c-0.661,0.002-1.331,0.066-1.98-0.014c-0.946-0.117-1.453-0.755-1.456-1.682
	c-0.003-0.928,0.511-1.618,1.447-1.685c1.354-0.096,2.724-0.096,4.078-0.003c0.936,0.064,1.456,0.748,1.459,1.676
	c0.002,0.928-0.515,1.567-1.45,1.688C18.949,61.192,18.24,61.122,17.541,61.122"/>
</svg>
