<?xml version="1.0" encoding="utf-8"?>
<!-- Generator: Adobe Illustrator 22.0.0, SVG Export Plug-In . SVG Version: 6.00 Build 0)  -->
<svg version="1.1" id="Capa_1" xmlns="http://www.w3.org/2000/svg" xmlns:xlink="http://www.w3.org/1999/xlink" x="0px" y="0px"
	 viewBox="0 0 61.667 51.914" enable-background="new 0 0 61.667 51.914" xml:space="preserve">
<g>
	<g>
	</g>
</g>
<g>
	<g>
		<g>
			<g>
				<polygon fill="#282932" points="32.162,12.812 26.65,18.07 51.629,18.07 57.521,12.812 				"/>
				<path fill="#FFFFFF" d="M51.629,19.07H26.65c-0.409,0-0.776-0.249-0.928-0.628c-0.152-0.38-0.058-0.813,0.238-1.096l5.512-5.259
					c0.186-0.178,0.433-0.276,0.69-0.276h25.359c0.415,0,0.787,0.256,0.935,0.644c0.147,0.388,0.041,0.826-0.269,1.103l-5.892,5.259
					C52.112,18.979,51.875,19.07,51.629,19.07z M29.146,17.07h22.102l3.651-3.259H32.562L29.146,17.07z"/>
			</g>
			<g>
				<polygon fill="#282932" points="19.459,39.103 26.65,18.07 51.629,18.07 44.439,39.103 				"/>
				<path fill="#FFFFFF" d="M44.438,40.103H19.459c-0.323,0-0.626-0.156-0.813-0.418c-0.188-0.263-0.237-0.6-0.133-0.905
					l7.19-21.033c0.138-0.405,0.519-0.677,0.946-0.677h24.979c0.323,0,0.626,0.156,0.813,0.418c0.188,0.263,0.237,0.6,0.133,0.905
					l-7.191,21.033C45.247,39.832,44.866,40.103,44.438,40.103z M20.858,38.103h22.866L50.23,19.07H27.365L20.858,38.103z"/>
			</g>
			<g>
				<polyline fill="#282932" points="44.439,39.103 51.629,18.07 57.521,12.812 50.434,34.985 44.543,39.103 				"/>
				<path fill="#FFFFFF" d="M44.438,40.103c-0.107,0-0.216-0.018-0.324-0.054c-0.522-0.179-0.801-0.747-0.623-1.27l7.191-21.033
					c0.056-0.163,0.152-0.309,0.28-0.423l5.892-5.259c0.336-0.301,0.832-0.339,1.21-0.093c0.378,0.245,0.545,0.714,0.408,1.144
					L51.387,35.29c-0.067,0.208-0.2,0.39-0.38,0.515l-5.892,4.118c-0.189,0.132-0.414,0.188-0.623,0.18
					C44.475,40.103,44.457,40.103,44.438,40.103z M52.491,18.641l-6.148,17.983l3.242-2.266l5.868-18.361L52.491,18.641z"/>
			</g>
			<g>
				<polygon fill="#282932" points="34.983,23.914 37.098,18.07 41.165,18.07 38.969,23.914 				"/>
				<path fill="#FFFFFF" d="M38.969,24.914h-3.986c-0.326,0-0.631-0.159-0.818-0.426c-0.188-0.267-0.233-0.608-0.122-0.914
					l2.114-5.844c0.144-0.396,0.52-0.66,0.94-0.66h4.067c0.328,0,0.635,0.161,0.822,0.431c0.187,0.27,0.229,0.614,0.114,0.921
					l-2.196,5.844C39.759,24.656,39.386,24.914,38.969,24.914z M36.409,22.914h1.868l1.444-3.844h-1.922L36.409,22.914z"/>
			</g>
			<g>
				<path fill="#FFFFFF" d="M20.871,23.441h-9.693c-0.552,0-1-0.447-1-1s0.448-1,1-1h9.693c0.552,0,1,0.447,1,1
					S21.423,23.441,20.871,23.441z"/>
			</g>
			<g>
				<path fill="#FFFFFF" d="M17.735,30.949H8.042c-0.552,0-1-0.447-1-1s0.448-1,1-1h9.693c0.552,0,1,0.447,1,1
					S18.287,30.949,17.735,30.949z"/>
			</g>
			<g>
				<path fill="#FFFFFF" d="M19.459,26.958H4.146c-0.552,0-1-0.447-1-1s0.448-1,1-1h15.314c0.552,0,1,0.447,1,1
					S20.012,26.958,19.459,26.958z"/>
			</g>
		</g>
	</g>
</g>
</svg>
