<?xml version="1.0" encoding="utf-8"?>
<!-- Generator: Adobe Illustrator 22.0.0, SVG Export Plug-In . SVG Version: 6.00 Build 0)  -->
<svg version="1.1" id="Capa_1" xmlns="http://www.w3.org/2000/svg" xmlns:xlink="http://www.w3.org/1999/xlink" x="0px" y="0px"
	 viewBox="0 0 62.666 62.667" enable-background="new 0 0 62.666 62.667" xml:space="preserve">
<g>
	<path fill="#FFFFFF" d="M31.333,62.667C14.056,62.667,0,48.611,0,31.333S14.056,0,31.333,0s31.333,14.056,31.333,31.333
		S48.61,62.667,31.333,62.667z M31.333,2C15.159,2,2,15.159,2,31.333s13.159,29.333,29.333,29.333s29.333-13.159,29.333-29.333
		S47.507,2,31.333,2z"/>
	<path fill="#FFFFFF" d="M45.646,20.573h-5.377c-0.452-1.839-2.103-3.213-4.08-3.213s-3.628,1.374-4.08,3.213H19.138
		c-0.553,0-1,0.448-1,1s0.447,1,1,1H32.11c0.452,1.839,2.103,3.213,4.08,3.213s3.628-1.374,4.08-3.213h5.377c0.553,0,1-0.448,1-1
		S46.199,20.573,45.646,20.573z M36.189,23.787c-1.22,0-2.213-0.993-2.213-2.213s0.993-2.213,2.213-2.213s2.213,0.993,2.213,2.213
		S37.409,23.787,36.189,23.787z"/>
	<path fill="#FFFFFF" d="M44.587,30.333H30.484c-0.452-1.84-2.103-3.213-4.08-3.213s-3.629,1.373-4.081,3.213h-4.244
		c-0.553,0-1,0.448-1,1s0.447,1,1,1h4.244c0.452,1.84,2.104,3.213,4.081,3.213s3.628-1.374,4.08-3.213h14.103c0.553,0,1-0.448,1-1
		S45.14,30.333,44.587,30.333z M26.404,33.547c-1.221,0-2.214-0.993-2.214-2.213c0-1.22,0.993-2.213,2.214-2.213
		c1.22,0,2.213,0.993,2.213,2.213C28.617,32.554,27.624,33.547,26.404,33.547z"/>
	<path fill="#FFFFFF" d="M44.587,40.094h-8.115c-0.452-1.84-2.104-3.213-4.081-3.213s-3.628,1.374-4.08,3.213H18.079
		c-0.553,0-1,0.448-1,1s0.447,1,1,1h10.233c0.452,1.839,2.103,3.213,4.08,3.213s3.629-1.374,4.081-3.213h8.115c0.553,0,1-0.448,1-1
		S45.14,40.094,44.587,40.094z M32.392,43.307c-1.22,0-2.213-0.993-2.213-2.213s0.993-2.213,2.213-2.213
		c1.221,0,2.214,0.993,2.214,2.213S33.612,43.307,32.392,43.307z"/>
</g>
</svg>
