<?xml version="1.0" encoding="utf-8"?>
<!-- Generator: Adobe Illustrator 16.0.0, SVG Export Plug-In . SVG Version: 6.00 Build 0)  -->
<!DOCTYPE svg PUBLIC "-//W3C//DTD SVG 1.1//EN" "http://www.w3.org/Graphics/SVG/1.1/DTD/svg11.dtd">
<svg version="1.1" id="Capa_1" xmlns="http://www.w3.org/2000/svg" xmlns:xlink="http://www.w3.org/1999/xlink" x="0px" y="0px"
	 width="141.732px" height="141.732px" viewBox="0 0 141.732 141.732" enable-background="new 0 0 141.732 141.732"
	 xml:space="preserve">
<g>
	<g>
		<g>
			<path fill="#FFFFFF" d="M93.521,54.883c1.599,0,2.896-1.297,2.896-2.896V17.245C96.416,9.265,89.924,2.768,81.94,2.768H18.243
				c-7.985,0-14.477,6.497-14.477,14.477v104.229c0,7.979,6.491,14.477,14.477,14.477H81.94c7.984,0,14.476-6.497,14.476-14.477
				V86.732c0-1.599-1.297-2.896-2.895-2.896c-1.599,0-2.896,1.297-2.896,2.896v34.742c0,4.789-3.897,8.687-8.685,8.687H18.243
				c-4.789,0-8.686-3.897-8.686-8.687V17.245c0-4.789,3.897-8.686,8.686-8.686H81.94c4.788,0,8.685,3.897,8.685,8.686v34.742
				C90.625,53.586,91.922,54.883,93.521,54.883z"/>
		</g>
	</g>
	<g>
		<g>
			<path fill="#FFFFFF" d="M134.055,66.464H41.406c-1.599,0-2.896,1.297-2.896,2.895c0,1.599,1.297,2.896,2.896,2.896h92.649
				c1.598,0,2.895-1.297,2.895-2.896C136.949,67.762,135.652,66.464,134.055,66.464z"/>
		</g>
	</g>
	<g>
		<g>
			<path fill="#FFFFFF" d="M136.098,67.322l-17.371-17.373c-1.129-1.129-2.965-1.129-4.095,0c-1.129,1.13-1.129,2.965,0,4.094
				l15.323,15.322l-15.323,15.322c-1.129,1.13-1.129,2.965,0,4.094c0.568,0.562,1.309,0.845,2.05,0.845
				c0.742,0,1.483-0.283,2.045-0.839l17.371-17.371C137.227,70.286,137.227,68.451,136.098,67.322z"/>
		</g>
	</g>
</g>
</svg>
