<?xml version="1.0" encoding="utf-8"?>
<!-- Generator: Adobe Illustrator 16.0.0, SVG Export Plug-In . SVG Version: 6.00 Build 0)  -->
<!DOCTYPE svg PUBLIC "-//W3C//DTD SVG 1.1//EN" "http://www.w3.org/Graphics/SVG/1.1/DTD/svg11.dtd">
<svg version="1.1" id="Capa_1" xmlns="http://www.w3.org/2000/svg" xmlns:xlink="http://www.w3.org/1999/xlink" x="0px" y="0px"
	 width="141.732px" height="141.732px" viewBox="0 0 141.732 141.732" enable-background="new 0 0 141.732 141.732"
	 xml:space="preserve">
<g>
	<path fill="#FFFFFF" d="M125.704,99.901l4.001,3.656c0.593,0.542,1.361,0.84,2.164,0.84c0.913,0,1.753-0.37,2.367-1.042
		c0.58-0.634,0.877-1.453,0.839-2.309c-0.039-0.856-0.408-1.645-1.04-2.223l-9.219-8.436c-0.102-0.106-0.21-0.206-0.326-0.297
		l-0.113-0.096l-17.222-15.746c-2.377-2.174-5.436-3.371-8.613-3.371s-6.236,1.197-8.614,3.371L63.05,98.823
		c-0.632,0.578-1.001,1.367-1.04,2.223c-0.039,0.856,0.258,1.676,0.836,2.308c0.616,0.672,1.458,1.043,2.37,1.043
		c0.802,0,1.569-0.298,2.162-0.84l3.741-3.418v21.53c0,6.987,5.68,12.671,12.661,12.671h29.264c6.98,0,12.66-5.685,12.66-12.671
		V99.901z M119.29,121.669c0,3.45-2.802,6.256-6.245,6.256H83.782c-3.445,0-6.248-2.807-6.248-6.256V94.271l16.724-15.288
		c1.179-1.078,2.7-1.671,4.284-1.671c1.583,0,3.105,0.593,4.284,1.67l16.463,15.051V121.669z"/>
	<path fill="#FFFFFF" d="M57.143,86.692c1.769,0,3.207-1.439,3.207-3.208s-1.438-3.208-3.207-3.208
		c-13.306,0-24.132-10.825-24.132-24.131c0-13.307,10.826-24.132,24.132-24.132c13.307,0,24.132,10.826,24.132,24.132
		c0,1.769,1.439,3.208,3.208,3.208s3.208-1.439,3.208-3.208c0-16.844-13.704-30.547-30.547-30.547
		c-16.843,0-30.546,13.704-30.546,30.547C26.597,72.989,40.3,86.692,57.143,86.692z"/>
	<path fill="#FFFFFF" d="M37.626,103.553C23.983,88.613,12.2,75.711,12.182,56.096C12.21,31.329,32.38,11.183,57.143,11.183
		c24.763,0,44.932,20.146,44.961,44.908c0.002,1.767,1.44,3.204,3.206,3.204c0.863,0,1.667-0.335,2.272-0.941
		c0.605-0.606,0.938-1.413,0.937-2.269c-0.016-13.711-5.367-26.599-15.068-36.289C83.75,10.105,70.856,4.768,57.143,4.768
		c-13.711,0-26.606,5.337-36.309,15.028c-9.701,9.691-15.052,22.583-15.068,36.3c0.01,9.994,2.796,19.389,8.517,28.716
		c5.027,8.198,11.623,15.42,18.606,23.067c6.98,7.645,14.182,15.533,19.98,24.707c0.591,0.936,1.606,1.494,2.716,1.494
		c0.603,0,1.194-0.172,1.709-0.497c1.493-0.944,1.941-2.93,0.997-4.425C52.185,119.497,44.784,111.392,37.626,103.553z"/>
</g>
</svg>
