<?xml version="1.0" encoding="utf-8"?>
<!-- Generator: Adobe Illustrator 16.0.0, SVG Export Plug-In . SVG Version: 6.00 Build 0)  -->
<!DOCTYPE svg PUBLIC "-//W3C//DTD SVG 1.1//EN" "http://www.w3.org/Graphics/SVG/1.1/DTD/svg11.dtd">
<svg version="1.1" id="Capa_1" xmlns="http://www.w3.org/2000/svg" xmlns:xlink="http://www.w3.org/1999/xlink" x="0px" y="0px"
	 width="141.732px" height="141.732px" viewBox="0 0 141.732 141.732" enable-background="new 0 0 141.732 141.732"
	 xml:space="preserve">
<g>
	<defs>
		<rect id="SVGID_1_" x="147.266" y="-72.728" width="1924" height="1394.53"/>
	</defs>
	<clipPath id="SVGID_2_">
		<use xlink:href="#SVGID_1_"  overflow="visible"/>
	</clipPath>
	<g clip-path="url(#SVGID_2_)">
		<defs>
			<rect id="SVGID_27_" x="147.266" y="-72.732" width="1924" height="1394.534"/>
		</defs>
		<clipPath id="SVGID_4_">
			<use xlink:href="#SVGID_27_"  overflow="visible"/>
		</clipPath>
	</g>
</g>
<g>
	<path fill="#FFFFFF" stroke="#FFFFFF" stroke-width="0.5" stroke-miterlimit="10" d="M135.17,102.801l-3.377-0.648
		c-1.583-0.303-2.829-1.34-3.418-2.843c-0.592-1.502-0.381-3.108,0.573-4.409l2.122-2.89c0.682-0.931,0.584-2.222-0.234-3.038
		l-4.582-4.579c-0.792-0.793-2.036-0.908-2.965-0.283l-2.846,1.927c-1.336,0.907-2.949,1.055-4.432,0.408
		c-1.478-0.643-2.467-1.929-2.712-3.526l-0.545-3.542c-0.173-1.139-1.156-1.981-2.309-1.981h-6.478c-1.12,0-2.086,0.797-2.296,1.899
		l-0.837,4.361c-0.297,1.548-1.305,2.784-2.762,3.387c-1.46,0.61-3.043,0.442-4.35-0.441l-3.677-2.489
		c-0.928-0.625-2.17-0.509-2.965,0.283l-4.582,4.58c-0.818,0.815-0.917,2.104-0.234,3.037l2.122,2.891
		c0.954,1.3,1.165,2.907,0.572,4.408c-0.588,1.503-1.835,2.54-3.418,2.845l-3.377,0.647c-1.101,0.213-1.898,1.176-1.898,2.296v6.478
		c0,1.152,0.842,2.135,1.982,2.311l3.544,0.545c1.597,0.245,2.881,1.234,3.526,2.713c0.646,1.48,0.495,3.094-0.409,4.432
		l-1.928,2.846c-0.628,0.926-0.509,2.173,0.283,2.965l4.58,4.582c0.813,0.814,2.1,0.915,3.038,0.234l2.89-2.122
		c1.3-0.951,2.912-1.167,4.408-0.572c1.504,0.59,2.54,1.835,2.844,3.418l0.647,3.377c0.213,1.097,1.177,1.895,2.298,1.895h6.479
		c1.153,0,2.134-0.842,2.311-1.983l0.383-2.491c0.245-1.608,1.291-2.937,2.79-3.559c1.504-0.62,3.18-0.419,4.492,0.543l2.033,1.492
		c0.933,0.684,2.224,0.584,3.038-0.234l4.578-4.582c0.792-0.792,0.913-2.038,0.283-2.965l-1.926-2.846
		c-0.906-1.336-1.055-2.952-0.409-4.433c0.643-1.478,1.928-2.467,3.526-2.713l3.542-0.544c1.139-0.177,1.984-1.158,1.984-2.311
		v-6.478C137.069,103.977,136.272,103.013,135.17,102.801z M132.392,109.571l-1.56,0.241c-3.167,0.486-5.821,2.53-7.1,5.465
		c-1.282,2.938-0.973,6.272,0.823,8.923l0.844,1.246l-1.796,1.796l-0.413-0.304c-2.643-1.931-6.022-2.343-9.049-1.092
		c-3.026,1.254-5.126,3.934-5.624,7.168l-0.077,0.509h-2.54l-0.283-1.479c-0.605-3.148-2.748-5.724-5.727-6.893
		c-2.984-1.167-6.303-0.734-8.888,1.155l-1.272,0.934l-1.796-1.796l0.845-1.247c1.796-2.652,2.103-5.986,0.824-8.922
		c-1.28-2.935-3.936-4.979-7.1-5.466l-1.56-0.238v-2.54l1.48-0.282c3.148-0.606,5.723-2.748,6.892-5.728
		c1.17-2.981,0.736-6.302-1.155-8.886l-0.934-1.272l1.796-1.796l2.08,1.408c2.589,1.756,5.869,2.085,8.762,0.891
		c2.893-1.2,4.975-3.751,5.566-6.826l0.47-2.466h2.54l0.24,1.561c0.488,3.166,2.531,5.821,5.466,7.1
		c2.934,1.282,6.271,0.973,8.921-0.823l1.247-0.844l1.796,1.796l-0.934,1.272c-1.894,2.582-2.325,5.902-1.155,8.886
		c1.169,2.979,3.746,5.122,6.892,5.728l1.48,0.282v2.54H132.392z"/>
	<path fill="#FFFFFF" stroke="#FFFFFF" stroke-width="0.5" stroke-miterlimit="10" d="M106.667,96.105
		c-6.448,0-11.692,5.246-11.692,11.693c0,6.448,5.245,11.692,11.692,11.692s11.693-5.244,11.693-11.692
		C118.36,101.351,113.114,96.105,106.667,96.105z M106.667,114.815c-3.868,0-7.016-3.148-7.016-7.017
		c0-3.869,3.148-7.016,7.016-7.016c3.869,0,7.016,3.147,7.016,7.016C113.683,111.667,110.535,114.815,106.667,114.815z"/>
	<path fill="#FFFFFF" stroke="#FFFFFF" stroke-width="0.5" stroke-miterlimit="10" d="M68.08,126.507
		c-1.483,0-2.961-0.072-4.433-0.183c-0.254-0.019-0.509-0.035-0.762-0.058c-1.482-0.131-2.958-0.308-4.419-0.545
		c-0.066-0.012-0.131-0.023-0.197-0.035c-3.091-0.516-6.133-1.277-9.097-2.271c-0.091-0.031-0.185-0.061-0.276-0.094
		c-1.471-0.5-2.926-1.052-4.354-1.667c-0.01-0.005-0.022-0.009-0.031-0.014c-1.352-0.583-2.678-1.228-3.987-1.909
		c-0.171-0.089-0.344-0.173-0.513-0.264c-1.195-0.639-2.365-1.328-3.517-2.049c-0.341-0.215-0.681-0.433-1.017-0.652
		c-1.063-0.694-2.109-1.417-3.129-2.183c-0.105-0.079-0.206-0.163-0.311-0.242c0.075-0.042,0.149-0.085,0.224-0.127l18.492-10.086
		c3.181-1.735,5.157-5.063,5.157-8.685l-0.002-8.424l-0.538-0.651c-0.052-0.058-5.108-6.208-7.019-14.536l-0.212-0.927l-0.797-0.517
		c-1.125-0.728-1.798-1.943-1.798-3.255v-8.29c0-1.088,0.46-2.101,1.302-2.86l0.773-0.697V42.26l-0.022-0.306
		c-0.006-0.056-0.696-5.68,3.266-10.196c3.381-3.854,9.177-5.812,17.22-5.812c8.012,0,13.788,1.94,17.179,5.768
		c3.957,4.468,3.31,10.198,3.305,10.245l-0.021,13.333l0.771,0.696c0.839,0.758,1.303,1.773,1.303,2.86v8.29
		c0,1.668-1.135,3.181-2.762,3.684c-1.233,0.379-1.926,1.691-1.544,2.924c0.379,1.232,1.684,1.92,2.924,1.543
		c3.625-1.117,6.059-4.394,6.059-8.15v-8.29c0-2.027-0.744-3.994-2.074-5.54V42.393c0.121-1.216,0.551-8.063-4.404-13.713
		c-4.31-4.921-11.286-7.412-20.736-7.412c-9.451,0-16.427,2.491-20.737,7.409c-4.956,5.65-4.525,12.503-4.403,13.714v10.915
		c-1.329,1.545-2.074,3.512-2.074,5.54v8.29c0,2.575,1.155,4.977,3.133,6.598c1.894,7.42,5.793,13.037,7.233,14.941v6.769
		c0,1.908-1.04,3.661-2.717,4.578l-18.491,10.087c-0.59,0.32-1.174,0.695-1.76,1.113C16.105,100.296,8.444,84.463,8.444,66.872
		c0-32.884,26.751-59.635,59.636-59.635c32.883,0,59.635,26.751,59.635,59.635c0,1.293,1.044,2.339,2.338,2.339
		c1.293,0,2.339-1.046,2.339-2.339c0-35.461-28.852-64.313-64.313-64.313c-35.461,0-64.313,28.852-64.313,64.313
		c0,18.73,8.054,35.613,20.874,47.377l-0.06,0.054l2.086,1.758c0.136,0.115,0.283,0.208,0.416,0.32
		c1.109,0.919,2.257,1.792,3.427,2.636c0.378,0.273,0.757,0.549,1.144,0.814c1.248,0.86,2.53,1.677,3.84,2.45
		c0.285,0.169,0.572,0.333,0.86,0.497c1.433,0.816,2.897,1.585,4.396,2.292c0.11,0.051,0.22,0.099,0.332,0.15
		c4.886,2.271,10.101,3.938,15.555,4.923c0.143,0.025,0.285,0.051,0.43,0.077c1.693,0.292,3.405,0.526,5.138,0.683
		c0.211,0.019,0.423,0.031,0.634,0.049c1.729,0.143,3.473,0.234,5.241,0.234c1.293,0,2.338-1.046,2.338-2.338
		C70.418,127.553,69.373,126.507,68.08,126.507z"/>
</g>
</svg>
