<?xml version="1.0" encoding="utf-8"?>
<!-- Generator: Adobe Illustrator 16.0.0, SVG Export Plug-In . SVG Version: 6.00 Build 0)  -->
<!DOCTYPE svg PUBLIC "-//W3C//DTD SVG 1.1//EN" "http://www.w3.org/Graphics/SVG/1.1/DTD/svg11.dtd">
<svg version="1.1" id="Capa_1" xmlns="http://www.w3.org/2000/svg" xmlns:xlink="http://www.w3.org/1999/xlink" x="0px" y="0px"
	 width="141.732px" height="141.732px" viewBox="0 0 141.732 141.732" enable-background="new 0 0 141.732 141.732"
	 xml:space="preserve">
<g>
	<defs>
		<rect id="SVGID_1_" x="147.266" y="-224.062" width="1924" height="1394.53"/>
	</defs>
	<clipPath id="SVGID_2_">
		<use xlink:href="#SVGID_1_"  overflow="visible"/>
	</clipPath>
	<g clip-path="url(#SVGID_2_)">
		<defs>
			<rect id="SVGID_27_" x="147.266" y="-224.065" width="1924" height="1394.534"/>
		</defs>
		<clipPath id="SVGID_4_">
			<use xlink:href="#SVGID_27_"  overflow="visible"/>
		</clipPath>
	</g>
</g>
<path fill="#FFFFFF" d="M11.446,136.285h117.87c4.313,0,7.822-3.509,7.822-7.823V31.454c0-1.441-1.167-2.608-2.607-2.608h-18.254
	c0-14.379-11.698-26.078-26.077-26.078c-14.411,0-26.077,11.656-26.077,26.078H44.303c-1.44,0-2.607,1.167-2.607,2.608v30.249H6.23
	c-1.44,0-2.607,1.169-2.607,2.608v64.15C3.623,132.775,7.132,136.285,11.446,136.285z M8.838,128.461v-9.388h60.499v9.388
	c0,1.438-1.169,2.607-2.607,2.607H11.446C10.008,131.069,8.838,129.9,8.838,128.461z M129.316,131.069H74.105
	c0.29-0.815,0.448-1.693,0.448-2.607v-9.388h57.37v9.388C131.923,129.9,130.754,131.069,129.316,131.069z M90.2,7.984
	c11.503,0,20.861,9.358,20.861,20.862H69.337C69.337,17.317,78.664,7.984,90.2,7.984z M46.911,34.062h17.212v11.995h-2.608
	c-1.44,0-2.607,1.168-2.607,2.608c0,1.44,1.167,2.607,2.607,2.607h10.432c1.44,0,2.607-1.167,2.607-2.607
	c0-1.44-1.167-2.608-2.607-2.608h-2.608V34.062h41.724v11.995h-2.607c-1.44,0-2.607,1.168-2.607,2.608
	c0,1.44,1.167,2.607,2.607,2.607h10.431c1.44,0,2.608-1.167,2.608-2.607c0-1.44-1.168-2.608-2.608-2.608h-2.607V34.062h15.646
	v79.797h-57.37V64.311c0-1.439-1.167-2.608-2.607-2.608H46.911V34.062z M69.337,66.918v46.94H8.838v-46.94H69.337z"/>
</svg>
