<?xml version="1.0" encoding="utf-8"?>
<!-- Generator: Adobe Illustrator 16.0.0, SVG Export Plug-In . SVG Version: 6.00 Build 0)  -->
<!DOCTYPE svg PUBLIC "-//W3C//DTD SVG 1.1//EN" "http://www.w3.org/Graphics/SVG/1.1/DTD/svg11.dtd">
<svg version="1.1" id="Capa_1" xmlns="http://www.w3.org/2000/svg" xmlns:xlink="http://www.w3.org/1999/xlink" x="0px" y="0px"
	 width="241.333px" height="183.539px" viewBox="0 0 241.333 183.539" enable-background="new 0 0 241.333 183.539"
	 xml:space="preserve">
<g>
	<path fill="#EA4335" stroke="#FFFFFF" stroke-miterlimit="10" d="M59.962,126.728L41.082,31.72h176.008v80.435
		c0,8.05-6.522,14.573-14.573,14.573H59.962"/>
	<circle fill="#46464F" cx="85.541" cy="159.615" r="18.271"/>
	<path fill="#46464F" d="M85.541,181.539c-12.092,0-21.925-9.833-21.925-21.925c0-12.091,9.833-21.924,21.925-21.924
		c12.091,0,21.925,9.833,21.925,21.924C107.466,171.706,97.632,181.539,85.541,181.539z"/>
	<path fill="#FFFFFF" d="M85.541,144.998c-8.061,0-14.617,6.555-14.617,14.616s6.556,14.617,14.617,14.617
		s14.616-6.556,14.616-14.617S93.602,144.998,85.541,144.998z"/>
	<circle fill="#46464F" cx="169.586" cy="159.615" r="18.271"/>
	<path fill="#46464F" d="M169.586,181.539c-12.092,0-21.925-9.833-21.925-21.925c0-12.091,9.833-21.924,21.925-21.924
		c12.091,0,21.924,9.833,21.924,21.924C191.51,171.706,181.677,181.539,169.586,181.539z"/>
	<path fill="#FFFFFF" d="M169.586,144.998c-8.061,0-14.617,6.555-14.617,14.616s6.556,14.617,14.617,14.617
		c8.061,0,14.616-6.556,14.616-14.617S177.646,144.998,169.586,144.998z"/>
	<path fill="#46464F" d="M206.127,159.614h-18.64c-2.021,0-3.654-1.633-3.654-3.654c0-2.021,1.633-3.654,3.654-3.654h18.64
		c2.021,0,3.654,1.633,3.654,3.654C209.781,157.981,208.147,159.614,206.127,159.614z"/>
	<path fill="#46464F" d="M151.684,159.614h-48.241c-2.021,0-3.654-1.633-3.654-3.654c0-2.021,1.633-3.654,3.654-3.654h48.237
		c2.021,0,3.654,1.633,3.654,3.654C155.334,157.981,153.701,159.614,151.684,159.614z"/>
	<path fill="#46464F" d="M41.078,35.374c-1.754,0-3.303-1.268-3.599-3.055l-2.54-15.216h-7.863c-2.021,0-3.654-1.633-3.654-3.654
		c0-2.021,1.633-3.654,3.654-3.654h14.061l3.552,21.325c0.333,1.992-1.012,3.874-3.003,4.203
		C41.476,35.36,41.279,35.374,41.078,35.374z"/>
	<circle fill="#FFFFFF" cx="125.78" cy="49.991" r="3.654"/>
	<circle fill="#FFFFFF" cx="136.743" cy="39.028" r="3.654"/>
	<circle fill="#FFFFFF" cx="136.743" cy="60.953" r="3.654"/>
	<circle fill="#FFFFFF" cx="147.705" cy="49.991" r="3.654"/>
	<circle fill="#FFFFFF" cx="103.855" cy="49.991" r="3.654"/>
	<circle fill="#FFFFFF" cx="114.818" cy="39.028" r="3.654"/>
	<circle fill="#FFFFFF" cx="114.818" cy="60.953" r="3.654"/>
	<circle fill="#FFFFFF" cx="49.043" cy="39.028" r="3.654"/>
	<circle fill="#FFFFFF" cx="49.043" cy="60.953" r="3.654"/>
	<circle fill="#FFFFFF" cx="60.006" cy="49.991" r="3.654"/>
	<circle fill="#FFFFFF" cx="81.931" cy="49.991" r="3.654"/>
	<circle fill="#FFFFFF" cx="70.968" cy="39.028" r="3.654"/>
	<circle fill="#FFFFFF" cx="92.893" cy="39.028" r="3.654"/>
	<circle fill="#FFFFFF" cx="70.968" cy="60.953" r="3.654"/>
	<circle fill="#FFFFFF" cx="92.893" cy="60.953" r="3.654"/>
	<circle fill="#FFFFFF" cx="213.479" cy="49.991" r="3.654"/>
	<circle fill="#FFFFFF" cx="158.667" cy="39.028" r="3.654"/>
	<circle fill="#FFFFFF" cx="158.667" cy="60.953" r="3.654"/>
	<circle fill="#FFFFFF" cx="169.63" cy="49.991" r="3.654"/>
	<circle fill="#FFFFFF" cx="191.554" cy="49.991" r="3.654"/>
	<circle fill="#FFFFFF" cx="125.78" cy="71.915" r="3.654"/>
	<circle fill="#FFFFFF" cx="147.705" cy="71.915" r="3.654"/>
	<circle fill="#FFFFFF" cx="103.855" cy="71.915" r="3.654"/>
	<circle fill="#FFFFFF" cx="60.006" cy="71.915" r="3.654"/>
	<circle fill="#FFFFFF" cx="81.931" cy="71.915" r="3.654"/>
	<circle fill="#FFFFFF" cx="213.479" cy="71.915" r="3.654"/>
	<circle fill="#FFFFFF" cx="169.63" cy="71.915" r="3.654"/>
	<circle fill="#FFFFFF" cx="191.554" cy="71.915" r="3.654"/>
	<circle fill="#FFFFFF" cx="180.592" cy="39.028" r="3.654"/>
	<circle fill="#FFFFFF" cx="202.517" cy="39.028" r="3.654"/>
	<circle fill="#FFFFFF" cx="180.592" cy="60.953" r="3.654"/>
	<circle fill="#FFFFFF" cx="202.517" cy="60.953" r="3.654"/>
	<circle fill="#FFFFFF" cx="125.78" cy="93.84" r="3.654"/>
	<circle fill="#FFFFFF" cx="136.743" cy="82.878" r="3.654"/>
	<circle fill="#FFFFFF" cx="136.743" cy="104.802" r="3.654"/>
	<circle fill="#FFFFFF" cx="147.705" cy="93.84" r="3.654"/>
	<circle fill="#FFFFFF" cx="103.855" cy="93.84" r="3.654"/>
	<circle fill="#FFFFFF" cx="114.818" cy="82.878" r="3.654"/>
	<circle fill="#FFFFFF" cx="114.818" cy="104.802" r="3.654"/>
	<circle fill="#FFFFFF" cx="60.006" cy="93.84" r="3.654"/>
	<circle fill="#FFFFFF" cx="81.931" cy="93.84" r="3.654"/>
	<circle fill="#FFFFFF" cx="70.968" cy="82.878" r="3.654"/>
	<circle fill="#FFFFFF" cx="92.893" cy="82.878" r="3.654"/>
	<circle fill="#FFFFFF" cx="70.968" cy="104.802" r="3.654"/>
	<circle fill="#FFFFFF" cx="92.893" cy="104.802" r="3.654"/>
	<circle fill="#FFFFFF" cx="213.479" cy="93.84" r="3.654"/>
	<circle fill="#FFFFFF" cx="158.667" cy="82.878" r="3.654"/>
	<circle fill="#FFFFFF" cx="158.667" cy="104.802" r="3.654"/>
	<circle fill="#FFFFFF" cx="169.63" cy="93.84" r="3.654"/>
	<circle fill="#FFFFFF" cx="191.554" cy="93.84" r="3.654"/>
	<circle fill="#FFFFFF" cx="125.78" cy="115.765" r="3.654"/>
	<circle fill="#FFFFFF" cx="147.705" cy="115.765" r="3.654"/>
	<circle fill="#FFFFFF" cx="103.855" cy="115.765" r="3.654"/>
	<circle fill="#FFFFFF" cx="60.006" cy="115.765" r="3.654"/>
	<circle fill="#FFFFFF" cx="81.931" cy="115.765" r="3.654"/>
	<circle fill="#FFFFFF" cx="213.479" cy="115.765" r="3.654"/>
	<circle fill="#FFFFFF" cx="169.63" cy="115.765" r="3.654"/>
	<circle fill="#FFFFFF" cx="191.554" cy="115.765" r="3.654"/>
	<circle fill="#FFFFFF" cx="180.592" cy="82.878" r="3.654"/>
	<circle fill="#FFFFFF" cx="202.517" cy="82.878" r="3.654"/>
	<circle fill="#FFFFFF" cx="180.592" cy="104.802" r="3.654"/>
	<circle fill="#FFFFFF" cx="202.517" cy="104.802" r="3.654"/>
	<path fill="#46464F" d="M67.639,159.614H56.308c-5.138,0-10.078-2.204-13.546-6.037c-3.46-3.826-5.148-8.963-4.633-14.098
		c0.932-9.201,9.219-16.407,18.866-16.407c2.021,0,3.654,1.633,3.654,3.654c0,2.021-1.633,3.654-3.654,3.654
		c-5.945,0-11.04,4.319-11.595,9.83c-0.318,3.125,0.672,6.132,2.781,8.463c2.09,2.31,5.05,3.632,8.127,3.632h11.331
		c2.021,0,3.654,1.633,3.654,3.654C71.293,157.981,69.656,159.614,67.639,159.614z"/>
	<circle fill="#EA4335" cx="16.113" cy="13.449" r="10.962"/>
	<path fill="#46464F" d="M202.521,130.381H56.962L36.627,28.066h184.116v84.092C220.743,122.207,212.569,130.381,202.521,130.381z
		 M62.962,123.073h139.554c6.022,0,10.918-4.896,10.918-10.915V35.374H45.536L62.962,123.073z"/>
</g>
</svg>
