<svg width="49" height="50" viewBox="0 0 49 50" fill="none" xmlns="http://www.w3.org/2000/svg">
<path d="M21.2047 33.3826C12.55 33.3826 5.51752 26.3419 5.51752 17.6954C5.51752 9.04894 12.5582 2 21.2047 2C29.8512 2 36.8919 9.04071 36.8919 17.6872C36.8919 26.3337 29.8594 33.3826 21.2047 33.3826ZM21.2047 4.38808C13.8758 4.38808 7.90559 10.3583 7.90559 17.6872C7.90559 25.0161 13.8758 30.9863 21.2047 30.9863C28.5419 30.9863 34.5038 25.0161 34.5038 17.6872C34.5038 10.3583 28.5419 4.38808 21.2047 4.38808Z" fill="white" stroke="white" stroke-linecap="round" stroke-linejoin="round"/>
<path d="M41.7998 40.3163C41.4951 40.3163 41.1904 40.201 40.9516 39.9704L30.1888 29.1912C29.7194 28.7218 29.7194 27.9724 30.1888 27.503C30.6581 27.0337 31.4157 27.0337 31.8769 27.503L42.6479 38.2741C43.1173 38.7435 43.1173 39.4928 42.6479 39.9622C42.4174 40.201 42.1127 40.3163 41.7998 40.3163Z" fill="white" stroke="white" stroke-linecap="round" stroke-linejoin="round"/>
</svg>
