<?xml version="1.0" encoding="utf-8"?>
<!-- Generator: Adobe Illustrator 22.0.0, SVG Export Plug-In . SVG Version: 6.00 Build 0)  -->
<svg version="1.1" id="Capa_1" xmlns="http://www.w3.org/2000/svg" xmlns:xlink="http://www.w3.org/1999/xlink" x="0px" y="0px"
	 viewBox="0 0 44.22 44.22" enable-background="new 0 0 44.22 44.22" xml:space="preserve">
<g>
	<g>
	</g>
</g>
<path fill="#FFFFFF" d="M34.209,24.189c-2-2.919-3.278-6.114-4.139-10.339c-0.49-3.487-0.567-7.623-0.236-12.669v-1.276h-15.65
	l0.262,1.296c0.193,3.674,0.313,8.429-0.476,12.632l-0.003,0.018c-0.543,3.864-1.837,7.246-3.969,10.357l-1.062,1.769h9.826
	l2.401,14.339h1.957l2.22-14.339h9.944L34.209,24.189z M16.659,2.155H27.56c-0.259,4.205-0.087,8.275,0.509,12.104
	c0.547,3.589,1.61,6.693,3.243,9.468h-7.811l-1.462,8.918l-1.317-8.918h-7.756c1.571-2.677,2.606-5.704,3.244-9.467
	C16.787,10.558,16.935,6.595,16.659,2.155z"/>
</svg>
