<?xml version="1.0" encoding="utf-8"?>
<!-- Generator: Adobe Illustrator 22.0.0, SVG Export Plug-In . SVG Version: 6.00 Build 0)  -->
<svg version="1.1" id="Capa_1" xmlns="http://www.w3.org/2000/svg" xmlns:xlink="http://www.w3.org/1999/xlink" x="0px" y="0px"
	 viewBox="0 0 24.489 23.242" enable-background="new 0 0 24.489 23.242" xml:space="preserve">
<g>
	<g>
		<path fill="#FFFFFF" d="M6.402,6.755c-0.821,0.82-1.274,1.911-1.274,3.071s0.452,2.249,1.276,3.072
			c0.824,0.82,1.917,1.271,3.08,1.271s2.257-0.452,3.08-1.271c0.821-0.82,1.274-1.911,1.274-3.072s-0.454-2.252-1.274-3.069
			C10.92,5.115,8.051,5.114,6.402,6.755z M7.919,11.385c-0.418-0.415-0.648-0.97-0.648-1.56s0.23-1.143,0.648-1.558
			c0.418-0.418,0.974-0.648,1.564-0.648s1.147,0.23,1.563,0.646l0.001,0.001c0.418,0.415,0.648,0.97,0.648,1.558
			s-0.23,1.143-0.65,1.56C10.213,12.218,8.755,12.218,7.919,11.385z"/>
		<path fill="#FFFFFF" d="M11.697,17.174c-0.065,0.075-0.13,0.15-0.195,0.224c-0.727,0.835-1.422,1.634-2.019,2.402
			c-0.599-0.768-1.294-1.567-2.021-2.402C5.235,14.84,2.71,11.94,2.71,9.425c0-1.804,0.705-3.501,1.984-4.774
			c1.279-1.277,2.98-1.979,4.79-1.979c1.808,0,3.509,0.703,4.788,1.979c1.279,1.274,1.984,2.97,1.984,4.774
			c0,0.129-0.011,0.26-0.024,0.392c0.681-0.23,1.407-0.36,2.165-0.36c0-0.011,0.002-0.021,0.002-0.031
			c0-2.374-0.926-4.605-2.611-6.286c-1.685-1.678-3.923-2.602-6.304-2.602c-2.382,0-4.62,0.924-6.305,2.602
			C1.493,4.82,0.565,7.051,0.565,9.425c0,3.305,2.805,6.527,5.298,9.39c1.059,1.217,2.059,2.368,2.693,3.36
			c0.089,0.153,0.208,0.276,0.352,0.365c0.177,0.113,0.375,0.166,0.571,0.166c0.355,0,0.703-0.175,0.907-0.497
			c0.52-0.818,1.271-1.724,2.096-2.68C12.084,18.814,11.815,18.018,11.697,17.174z"/>
		<g>
			<path fill="#FFFFFF" d="M22.306,12.323L22.306,12.323c-1.044-1.044-2.433-1.618-3.909-1.618c-1.477,0-2.864,0.575-3.906,1.617
				c-1.044,1.044-1.619,2.432-1.619,3.907c0,1.474,0.575,2.863,1.62,3.908c1.044,1.043,2.431,1.617,3.906,1.617
				s2.863-0.575,3.909-1.618c1.043-1.046,1.617-2.434,1.617-3.907S23.349,13.369,22.306,12.323z M22.499,16.23
				c0,1.097-0.427,2.127-1.202,2.9l-0.001,0.001c-0.773,0.774-1.802,1.2-2.899,1.2s-2.126-0.426-2.899-1.201
				c-0.774-0.773-1.201-1.804-1.201-2.9c0-1.097,0.427-2.127,1.202-2.9c0.773-0.774,1.801-1.201,2.899-1.201s2.127,0.427,2.9,1.202
				C22.073,14.102,22.499,15.132,22.499,16.23z"/>
			<path fill="#FFFFFF" d="M20.907,14.823c-0.171-0.075-0.363-0.082-0.544-0.013l-1.608,0.617l-2.159-1.599
				c-0.159-0.115-0.354-0.164-0.521-0.128c-0.188,0.026-0.355,0.125-0.469,0.279c-0.114,0.154-0.161,0.342-0.132,0.525
				c0.026,0.189,0.126,0.356,0.28,0.47l2.026,1.5l-0.005,0.004l0.295,0.215l0.579,0.369l0.095-0.127
				c0.069-0.008,0.13-0.025,0.175-0.049l1.952-0.75c0.178-0.068,0.319-0.201,0.396-0.376c0.077-0.174,0.081-0.367,0.014-0.541
				C21.213,15.039,21.08,14.899,20.907,14.823z"/>
		</g>
	</g>
</g>
<g>
	<g>
	</g>
</g>
</svg>
