<?xml version="1.0" encoding="utf-8"?>
<!-- Generator: Adobe Illustrator 24.1.0, SVG Export Plug-In . SVG Version: 6.00 Build 0)  -->
<svg version="1.1" id="Capa_1" xmlns="http://www.w3.org/2000/svg" xmlns:xlink="http://www.w3.org/1999/xlink" x="0px" y="0px"
	 viewBox="0 0 49 50" style="enable-background:new 0 0 49 50;" xml:space="preserve">
<style type="text/css">
	.st0{fill:#46464F;stroke:#46464F;stroke-linecap:round;stroke-linejoin:round;}
</style>
<path class="st0" d="M21.2,39.4c-8.7,0-15.7-7-15.7-15.7C5.5,15,12.6,8,21.2,8s15.7,7,15.7,15.7C36.9,32.3,29.9,39.4,21.2,39.4z
	 M21.2,10.4c-7.3,0-13.3,6-13.3,13.3S13.9,37,21.2,37c7.3,0,13.3-6,13.3-13.3S28.5,10.4,21.2,10.4z"/>
<path class="st0" d="M41.8,46.3c-0.3,0-0.6-0.1-0.8-0.3L30.2,35.2c-0.5-0.5-0.5-1.2,0-1.7c0.5-0.5,1.2-0.5,1.7,0l10.8,10.8
	c0.5,0.5,0.5,1.2,0,1.7C42.4,46.2,42.1,46.3,41.8,46.3z"/>
</svg>
