<?xml version="1.0" encoding="utf-8"?>
<!-- Generator: Adobe Illustrator 16.0.0, SVG Export Plug-In . SVG Version: 6.00 Build 0)  -->
<!DOCTYPE svg PUBLIC "-//W3C//DTD SVG 1.1//EN" "http://www.w3.org/Graphics/SVG/1.1/DTD/svg11.dtd">
<svg version="1.1" id="Capa_1" xmlns="http://www.w3.org/2000/svg" xmlns:xlink="http://www.w3.org/1999/xlink" x="0px" y="0px"
	 width="237.815px" height="62.211px" viewBox="0 0 237.815 62.211" enable-background="new 0 0 237.815 62.211"
	 xml:space="preserve">
<g>
	<polygon fill="#FFFFFF" points="82.422,24.456 78.498,46.683 72.108,46.683 76.033,24.456 72.017,24.456 69.233,27.56 
		67.271,27.56 68.73,19.299 91.55,19.299 90.637,24.456 	"/>
	<path fill="#FFFFFF" d="M108.881,47.275c-1.826,0-3.241-0.411-4.108-1.323c-1.825,0.821-3.605,1.323-5.613,1.323
		c-5.797,0-9.174-3.195-8.307-8.215l2.419-13.692h6.07l-2.373,13.692c-0.365,1.871,0.867,3.058,3.103,3.058
		c1.415,0,2.511-0.228,3.788-0.73l2.785-16.02h6.115l-2.692,15.198c-0.183,1.141,0.182,1.552,1.232,1.552
		c0.776,0,1.597-0.228,2.236-0.457l-0.867,5.021C111.665,47.002,110.159,47.275,108.881,47.275"/>
	<path fill="#FFFFFF" d="M122.847,47.275c-3.834,0-5.796-1.871-5.021-6.07l4.929-27.977h6.071l-4.838,27.338
		c-0.183,1.141,0.228,1.552,1.232,1.552c0.776,0,1.597-0.228,2.236-0.457l-0.867,5.021
		C125.584,47.002,124.079,47.275,122.847,47.275"/>
	<path fill="#FFFFFF" d="M136.767,47.275c-3.833,0-5.796-1.871-5.02-6.07l2.784-15.837h6.07l-2.693,15.198
		c-0.182,1.141,0.228,1.552,1.233,1.552c0.776,0,1.597-0.229,2.236-0.456l-0.867,5.02C139.505,47.001,138,47.275,136.767,47.275
		 M138.318,21.124c-1.871,0-3.104-1.506-2.738-3.332c0.319-1.871,2.053-3.377,3.925-3.377c1.825,0,3.058,1.506,2.738,3.377
		C141.923,19.618,140.145,21.124,138.318,21.124"/>
	<polygon fill="#FFFFFF" points="155.89,46.683 150.23,46.683 145.392,25.368 152.011,25.368 154.43,38.923 159.632,29.065 
		157.533,27.376 157.852,25.368 168.213,25.368 	"/>
	<path fill="#FFFFFF" d="M180.034,38.33c-1.917,0-3.651-0.183-5.112-0.457c0.046,2.922,1.871,4.245,5.477,4.245
		c2.282,0,4.518-0.502,6.618-1.141l-0.913,5.157c-2.008,0.684-4.473,1.141-6.618,1.141c-7.804,0-11.729-4.244-10.497-11.227
		c1.187-6.618,5.979-11.273,13.418-11.273c5.477,0,8.763,3.012,8.078,6.8C189.755,35.592,186.104,38.33,180.034,38.33
		 M181.54,29.567c-2.602,0-4.427,1.188-5.522,3.468c1.415,0.274,3.058,0.411,4.837,0.411c2.556,0,3.515-0.958,3.697-1.871
		C184.735,30.435,183.776,29.567,181.54,29.567"/>
	<path fill="#FFFFFF" d="M209.746,33.219l-1.733-3.195c-0.502-0.045-1.006-0.091-1.508-0.091c-1.278,0-2.647,0.182-3.696,0.456
		l-2.876,16.294h-6.115l2.829-15.975l-0.456-4.243l0.822-0.229c3.468-0.913,7.119-1.46,10.405-1.46c1.826,0,4.154,0.456,5.614,0.958
		l-1.324,7.485H209.746z"/>
	<polygon fill="#FFFFFF" points="218.006,58.868 211.663,58.868 219.741,45.268 214.995,25.368 221.704,25.368 224.123,38.421 
		229.143,29.02 227.134,27.376 227.454,25.368 237.815,25.368 	"/>
	<path fill="#FFFFFF" d="M31.106,0C13.926,0,0,13.926,0,31.104s13.926,31.106,31.106,31.106c17.179,0,31.105-13.928,31.105-31.106
		S48.285,0,31.106,0z M26.742,13.668c0.623-3.499,3.188-5.919,6.807-5.919s5.321,2.42,4.698,5.919
		c-0.599,3.477-3.164,5.896-6.783,5.896S26.144,17.145,26.742,13.668z M36.207,52.377l-0.331,2.084h-10.75l5.544-9.588h-9.797
		h-2.251h-3.43l-2.289-7.404l-2.779,0.301l-1.24-1.708l7.602-7.602l3.033,11.348l2.326-13.132h-9.367l4.8-5.352h19.501l-0.204,1.151
		h0.012l-3.09,17.506l0.248-0.429h6.127l-5.844,11.072L36.207,52.377z M50.594,36.81H36.58l0.636-3.59h7.676l0.262-1.478h-7.696
		l0.947-5.351h7.696l0.261-1.477h-7.675l0.636-3.591h14.004L50.594,36.81z"/>
</g>
</svg>
