<?xml version="1.0" encoding="utf-8"?>
<!-- Generator: Adobe Illustrator 22.0.0, SVG Export Plug-In . SVG Version: 6.00 Build 0)  -->
<svg version="1.1" id="Capa_1" xmlns="http://www.w3.org/2000/svg" xmlns:xlink="http://www.w3.org/1999/xlink" x="0px" y="0px"
	 viewBox="0 0 22.282 22.239" enable-background="new 0 0 22.282 22.239" xml:space="preserve">
<g>
	
		<path fill="#686868" stroke="#686868" stroke-width="0.75" stroke-linecap="round" stroke-linejoin="round" stroke-miterlimit="10" d="
		M18.381,19.781c0.388,0,0.702-0.327,0.702-0.731c0-0.404-0.314-0.731-0.702-0.731c-0.388,0-0.702,0.327-0.702,0.731
		C17.678,19.453,17.993,19.781,18.381,19.781z"/>
	
		<path fill="#686868" stroke="#686868" stroke-width="0.75" stroke-linecap="round" stroke-linejoin="round" stroke-miterlimit="10" d="
		M21.492,17.72c-0.865-2.087-2.471-2.642-3.323-2.789c0.183-0.4,0.275-0.663,0.284-0.686l0.032-0.093l-0.65-2.92l0.269-0.237v-0.001
		c0.256-0.006,0.463-0.618,0.463-1.372c0-0.754-0.207-1.366-0.463-1.372V8.22l-2.828,0.863v0.362l-1.178,0.361l0.162,0.676
		l1.015,0.136v0.273l1.08,0.53v0.073c-1.629,0.262-2.017,2.665-2.231,3.99c-0.047,0.29-0.087,0.541-0.127,0.689
		c-0.071,0.263-0.231,0.425-0.489,0.495c-0.189,0.051-0.359,0.033-0.36,0.033h0l-0.022-0.003h-1.792l-0.708-0.087
		c-0.437-0.301-0.711-0.889-0.815-1.75l2.741-2.388H12.45c0.006-0.064-0.033-0.144-0.124-0.23l-1.044-0.992
		c-0.22-0.209-0.656-0.379-0.969-0.379H7.97c-0.313,0-0.57,0.239-0.57,0.531v0.687c0,0.151,0.069,0.288,0.179,0.385L7.552,12.48
		c-0.07,0.017-1.735,0.424-3.423,1.482c-2.278,1.427-3.483,3.355-3.483,5.575v0.345h1.506c0.342,1.118,1.353,1.931,2.544,1.931
		s2.202-0.813,2.544-1.931h4.984v0l0.164,0v-0.011c0.667-0.059,1.313-0.246,1.929-0.553h1.407c0.131,1.398,1.272,2.495,2.656,2.495
		c1.471,0,2.668-1.24,2.668-2.764c0-0.297-0.046-0.584-0.13-0.852h0.771L21.492,17.72z M20.594,17.506h-0.424H19.7h-2.536
		l-0.52,0.551l-0.538,0.57h-0.013h-0.35h-0.342c0.142-0.111,0.282-0.23,0.419-0.356c0.415-0.379,0.808-0.823,1.176-1.329
		c0.101-0.138,0.196-0.276,0.285-0.412c0.22-0.333,0.407-0.656,0.563-0.948c0.235,0.026,0.632,0.098,1.077,0.302
		c0.723,0.331,1.294,0.876,1.703,1.622H20.594z M20.358,19.049c0,1.143-0.887,2.073-1.978,2.073c-1.008,0-1.842-0.795-1.962-1.819
		l1.044-1.107h2.72C20.295,18.457,20.358,18.746,20.358,19.049z M12.215,19.192H7.361H7.015H6.668H2.724H2.377H2.031H1.348
		c0.116-1.842,1.168-3.4,3.133-4.635c1.459-0.917,2.943-1.33,3.196-1.396h3.033L9.09,14.572l0.016,0.176
		c0.111,1.225,0.522,2.062,1.22,2.489l0.064,0.039l0.903,0.112h1.795c0.028,0.003,0.077,0.006,0.14,0.006
		c0.109,0,0.278-0.01,0.462-0.06c0.494-0.134,0.84-0.483,0.975-0.981c0.049-0.182,0.09-0.437,0.142-0.759
		c0.207-1.284,0.554-3.432,1.848-3.432c0.012,0,0.024,0,0.037,0.001l0.355,0.01v-1.182l-1.08-0.53V9.594l1.446-0.441v1.529
		l-0.341,0.301l0.695,3.124c-0.051,0.132-0.16,0.404-0.331,0.755c-0.051,0.104-0.106,0.215-0.168,0.332
		c-0.056,0.106-0.116,0.217-0.181,0.331c-0.184,0.324-0.403,0.675-0.66,1.026c-0.566,0.775-1.179,1.382-1.833,1.818
		c-0.177,0.118-0.358,0.224-0.541,0.317c-0.162,0.082-0.326,0.154-0.492,0.217C13.128,19.066,12.679,19.163,12.215,19.192z
		 M4.696,21.123c-0.808,0-1.503-0.511-1.81-1.24h3.62C6.2,20.612,5.504,21.123,4.696,21.123z"/>
	
		<polygon fill="#686868" stroke="#686868" stroke-width="0.75" stroke-linecap="round" stroke-linejoin="round" stroke-miterlimit="10" points="
		6.187,16.758 6.762,16.758 6.762,16.067 4.572,16.067 4.572,16.288 4.572,16.634 4.572,16.758 5.44,16.758 	"/>
	
		<polygon fill="#686868" stroke="#686868" stroke-width="0.75" stroke-linecap="round" stroke-linejoin="round" stroke-miterlimit="10" points="
		6.397,17.403 5.896,17.403 3.896,17.403 3.896,18.094 6.45,18.094 6.831,18.094 7.2,18.094 7.43,18.094 7.43,17.403 6.838,17.403 	
		"/>
	
		<path fill="#686868" stroke="#686868" stroke-width="0.75" stroke-linecap="round" stroke-linejoin="round" stroke-miterlimit="10" d="
		M5.377,13.032H4.169c-1.323,0-2.406-1.083-2.406-2.406v-0.563c0-1.323,1.083-2.406,2.406-2.406h1.208
		c1.323,0,2.406,1.083,2.406,2.406v0.563C7.782,11.949,6.7,13.032,5.377,13.032z"/>
</g>
</svg>
