<?xml version="1.0" encoding="utf-8"?>
<!-- Generator: Adobe Illustrator 16.0.0, SVG Export Plug-In . SVG Version: 6.00 Build 0)  -->
<!DOCTYPE svg PUBLIC "-//W3C//DTD SVG 1.1//EN" "http://www.w3.org/Graphics/SVG/1.1/DTD/svg11.dtd">
<svg version="1.1" id="Capa_1" xmlns="http://www.w3.org/2000/svg" xmlns:xlink="http://www.w3.org/1999/xlink" x="0px" y="0px"
	 width="283.465px" height="283.465px" viewBox="0 0 283.465 283.465" enable-background="new 0 0 283.465 283.465"
	 xml:space="preserve">
<g>
	<path fill="#A3A3A3" d="M77.597,265.179c-0.784,0-1.552,0.318-2.106,0.874c-0.554,0.553-0.873,1.322-0.873,2.105
		c0,0.782,0.318,1.553,0.873,2.105c0.554,0.555,1.322,0.873,2.106,0.873s1.551-0.318,2.107-0.873
		c0.554-0.553,0.872-1.319,0.872-2.105c0-0.783-0.318-1.553-0.872-2.105C79.148,265.497,78.38,265.179,77.597,265.179z"/>
	<path fill="#A3A3A3" d="M136.931,215.167l-6.942-31.364c1.874-0.254,3.526-1.208,4.689-2.589c1.372,0.858,2.989,1.356,4.724,1.356
		h5.958c1.646,0,2.979-1.333,2.979-2.979v-11.917c0-1.645-1.333-2.979-2.979-2.979h-5.958c-1.785,0-3.449,0.527-4.847,1.435
		c-1.363-1.541-3.354-2.518-5.57-2.518h-17.585c-3.159,0-5.864,1.981-6.94,4.768h-7.061c-4.271,0-7.746,3.474-7.746,7.746
		c0,4.27,3.474,7.744,7.746,7.744h15.333v6.003c0,1.646,1.334,2.979,2.979,2.979c1.645,0,2.979-1.333,2.979-2.979v-6.003h5.212
		l7.479,33.787l-14.152,25.207c-1.546,2.745-4.463,4.449-7.613,4.449H74.285c-1.478-12.403-12.054-22.055-24.848-22.055
		c-5.661,0-11.003,1.845-15.446,5.334c-0.006,0.005-0.012,0.008-0.019,0.015c-5.291,4.16-8.617,10.133-9.392,16.706h-6.118
		c0.389-21.417,17.932-38.719,39.437-38.719h21.132c1.667,0,3.024,1.359,3.024,3.027v26.754c0,1.646,1.334,2.979,2.98,2.979h15.851
		c6.467,0,12.426-3.516,15.552-9.175c1.447-2.619,2.213-5.584,2.216-8.572l0.015-9.896c0.002-1.646-1.331-2.981-2.976-2.985
		c-0.001,0-0.001,0-0.003,0c-1.643,0-2.977,1.331-2.978,2.976l-0.016,9.899c-0.001,1.987-0.511,3.958-1.472,5.698
		c-2.078,3.761-6.039,6.098-10.337,6.098H88.014v-23.775c0-1.524-0.384-2.964-1.058-4.223c2.677-1.548,4.482-4.438,4.482-7.743
		c0-4.93-4.01-8.938-8.937-8.938H71.629c-1.045,0-2.047,0.181-2.979,0.512V165.1c0-4.93-4.009-8.938-8.937-8.938H40.494
		c-13.931,0-25.516,10.229-27.646,23.569c-0.09,0.284-0.138,0.584-0.138,0.898c0,0.02,0.002,0.036,0.002,0.052
		c-0.142,1.141-0.215,2.302-0.215,3.479v15.496c0,4.474,3.306,8.192,7.604,8.838l6.597,6.596c-8.741,8.28-14.2,19.99-14.2,32.952
		v2.252c0,1.645,1.333,2.979,2.979,2.979h16.742c-0.038,0.193-0.059,0.392-0.059,0.596c0,4.324,1.6,8.278,4.235,11.311H15.476
		c-1.646,0-2.979,1.335-2.979,2.979c0,1.646,1.333,2.979,2.979,2.979h33.617c0.115,0.003,0.229,0.009,0.344,0.009
		c9.526,0,17.278-7.751,17.278-17.277c0-0.204-0.021-0.402-0.06-0.596h42.96c4.69,0,9.074-2.249,11.822-5.968h3.772
		c-0.849,2.065-1.299,4.291-1.299,6.563c0,4.324,1.6,8.278,4.235,11.311H89.513c-1.645,0-2.979,1.335-2.979,2.979
		c0,1.646,1.334,2.979,2.979,2.979h51.332c0.115,0.003,0.229,0.009,0.344,0.009c9.527,0,17.278-7.751,17.278-17.277
		c0-2.272-0.45-4.498-1.298-6.563h4.874c1.646,0,2.979-1.332,2.979-2.979C165.021,228.602,152.518,215.742,136.931,215.167z
		 M139.401,170.654h2.979v5.958h-2.979c-1.643,0-2.979-1.336-2.979-2.979S137.759,170.654,139.401,170.654z M97.398,177.915
		c-0.986,0-1.787-0.804-1.787-1.788c0-0.987,0.801-1.789,1.787-1.789h6.563v2.095c0,0.507,0.051,1.002,0.148,1.482H97.398z
		 M115.711,177.915h-4.312c-0.815,0-1.48-0.665-1.48-1.482v-5.38c0-0.816,0.665-1.48,1.48-1.48h17.585c0.815,0,1.48,0.664,1.48,1.48
		v5.38c0,0.817-0.665,1.482-1.48,1.482H115.711z M71.629,196.678h10.873c1.642,0,2.979,1.337,2.979,2.979
		c0,1.643-1.337,2.979-2.979,2.979H71.629c-1.644,0-2.979-1.336-2.979-2.979C68.649,198.015,69.985,196.678,71.629,196.678z
		 M31.302,211.268l-2.675-2.675h6.816C34.012,209.411,32.63,210.305,31.302,211.268z M21.436,202.635c0,0-0.002,0-0.003,0
		c-1.642,0-2.978-1.336-2.978-2.979V184.16c0-0.185,0.009-0.366,0.014-0.551h32.597c1.646,0,2.979-1.333,2.979-2.979
		s-1.333-2.979-2.979-2.979H19.438c2.782-8.987,11.169-15.53,21.057-15.53h19.218c1.643,0,2.978,1.335,2.978,2.979v34.556
		c0,1.643-1.335,2.979-2.978,2.979H21.436z M60.756,253.868c0,6.204-5.017,11.254-11.205,11.316
		c-0.038-0.001-0.077-0.006-0.115-0.006h-0.344c-6.083-0.183-10.977-5.185-10.977-11.311c0-0.204-0.021-0.402-0.06-0.596h22.76
		C60.777,253.466,60.756,253.664,60.756,253.868z M30.592,247.314c0.738-4.733,3.223-9.007,7.062-12.023
		c0.01-0.005,0.018-0.014,0.027-0.02c3.381-2.651,7.446-4.053,11.755-4.053c9.505,0,17.407,6.987,18.842,16.096H30.592z
		 M141.304,265.185c-0.038-0.001-0.076-0.006-0.115-0.006h-0.343c-6.084-0.183-10.977-5.185-10.977-11.311
		c0-2.367,0.737-4.654,2.097-6.563h18.447c1.358,1.909,2.097,4.196,2.097,6.563C152.51,260.072,147.493,265.122,141.304,265.185z
		 M124.912,241.346l11.361-20.232c11.6,0.215,21.151,8.971,22.599,20.232H124.912z"/>
	<path fill="#A3A3A3" d="M115.711,204.77c1.645,0,2.979-1.334,2.979-2.979s-1.334-2.979-2.979-2.979H115.7
		c-1.645,0-2.974,1.333-2.974,2.979S114.065,204.77,115.711,204.77z"/>
</g>
<path fill="#A3A3A3" d="M79.177,151.037c-0.247,0-0.498-0.031-0.748-0.095c-1.605-0.412-2.572-2.047-2.16-3.652
	c0.202-0.788,5.115-19.555,19.055-41.053c12.903-19.899,36.282-45.842,74.381-56.425c1.598-0.441,3.249,0.491,3.693,2.088
	c0.443,1.597-0.491,3.25-2.088,3.693c-69.524,19.313-89.041,92.451-89.23,93.188C81.733,150.137,80.514,151.037,79.177,151.037z"/>
<path fill="#A3A3A3" d="M166.507,70.707c-0.411,0-0.828-0.085-1.227-0.265c-1.511-0.678-2.187-2.454-1.508-3.965l6.092-13.567
	l-15.555-6.787c-1.519-0.663-2.212-2.432-1.55-3.95c0.663-1.519,2.432-2.209,3.949-1.55l21.112,9.213l-8.575,19.099
	C168.747,70.047,167.653,70.707,166.507,70.707z"/>
<g>
	<g>
		<path fill="#A3A3A3" stroke="#A3A3A3" stroke-width="2" stroke-miterlimit="10" d="M267.166,49.346l-38.999-28.555
			c-0.752-0.551-1.774-0.551-2.526,0l-38.999,28.555c-0.952,0.698-1.16,2.034-0.462,2.987c0.698,0.952,2.036,1.159,2.988,0.462
			l37.736-27.63l37.736,27.63c0.38,0.277,0.823,0.414,1.261,0.414c0.658,0,1.307-0.304,1.726-0.876
			C268.325,51.38,268.118,50.044,267.166,49.346z"/>
	</g>
</g>
<g>
	<g>
		<path fill="#A3A3A3" stroke="#A3A3A3" stroke-width="2" stroke-miterlimit="10" d="M256.831,53.278
			c-1.18,0-2.138,0.958-2.138,2.139v34.026h-17.101V70.868c0-5.894-4.795-10.688-10.689-10.688s-10.689,4.795-10.689,10.688v18.575
			h-17.101V55.417c0-1.181-0.958-2.138-2.138-2.138c-1.18,0-2.137,0.957-2.137,2.138V91.58c0,1.181,0.958,2.138,2.137,2.138h21.376
			c1.125,0,2.044-0.868,2.129-1.971c0.006-0.05,0.009-0.104,0.009-0.167V70.868c0-3.535,2.877-6.413,6.414-6.413
			s6.414,2.878,6.414,6.413V91.58c0,0.063,0.003,0.116,0.009,0.166c0.084,1.103,1.004,1.972,2.129,1.972h21.377
			c1.18,0,2.138-0.957,2.138-2.138V55.417C258.968,54.236,258.012,53.278,256.831,53.278z"/>
	</g>
</g>
</svg>
