<?xml version="1.0" encoding="utf-8"?>
<!-- Generator: Adobe Illustrator 16.0.0, SVG Export Plug-In . SVG Version: 6.00 Build 0)  -->
<!DOCTYPE svg PUBLIC "-//W3C//DTD SVG 1.1//EN" "http://www.w3.org/Graphics/SVG/1.1/DTD/svg11.dtd">
<svg version="1.1" id="Capa_1" xmlns="http://www.w3.org/2000/svg" xmlns:xlink="http://www.w3.org/1999/xlink" x="0px" y="0px"
	 width="283.465px" height="283.465px" viewBox="0 0 283.465 283.465" enable-background="new 0 0 283.465 283.465"
	 xml:space="preserve">
<g>
	<g>
		<g>
			<path fill="#A3A3A3" d="M260.702,251.197h-4.38V136.982c9.89-6.363,16.459-17.459,16.459-30.068c0-0.67-0.175-1.328-0.507-1.91
				l-30.55-53.461c-2.146-3.754-6.164-6.086-10.487-6.086H51.507c-4.324,0-8.343,2.332-10.488,6.086L10.47,105.004
				c-0.332,0.582-0.507,1.24-0.507,1.91c0,12.609,6.57,23.705,16.459,30.068v114.215h-4.379c-2.126,0-3.85,1.724-3.85,3.851
				c0,2.126,1.724,3.85,3.85,3.85h238.66c2.127,0,3.85-1.724,3.85-3.85C264.552,252.921,262.828,251.197,260.702,251.197z
				 M17.928,110.764h12.342c2.126,0,3.85-1.724,3.85-3.85c0-2.127-1.724-3.85-3.85-3.85h-9.823l27.257-47.701
				c0.778-1.361,2.235-2.207,3.803-2.207h179.73c1.567,0,3.024,0.846,3.803,2.207l27.257,47.701h-9.825
				c-2.127,0-3.85,1.723-3.85,3.85c0,2.126,1.723,3.85,3.85,3.85h12.344c-1.882,13.646-13.619,24.19-27.774,24.19
				c-14.154,0-25.886-10.546-27.769-24.19h26.741c2.127,0,3.851-1.724,3.851-3.85c0-2.127-1.724-3.85-3.851-3.85H46.732
				c-2.126,0-3.85,1.723-3.85,3.85c0,2.126,1.723,3.85,3.85,3.85h26.739c-1.883,13.645-13.615,24.19-27.769,24.19
				C31.548,134.954,19.81,124.41,17.928,110.764z M201.03,110.764c-1.883,13.645-13.614,24.19-27.769,24.19
				s-25.886-10.546-27.769-24.19H201.03z M137.251,110.764c-1.883,13.645-13.614,24.19-27.769,24.19s-25.886-10.546-27.769-24.19
				H137.251z M228.048,251.198H186.37v-12.875h41.678V251.198z M228.048,230.624H186.37v-70.482h41.678V230.624z M248.622,251.198
				h-12.874v-94.906c0-2.126-1.723-3.851-3.85-3.851h-49.378c-2.127,0-3.85,1.725-3.85,3.851v94.905H34.122v-110.48
				c3.635,1.249,7.528,1.937,11.582,1.937c13.908,0,25.985-7.985,31.889-19.612c5.904,11.627,17.981,19.612,31.89,19.612
				c13.908,0,25.986-7.985,31.89-19.612c5.903,11.627,17.981,19.612,31.89,19.612s25.986-7.985,31.89-19.612
				c5.904,11.627,17.981,19.612,31.891,19.612c4.053,0,7.946-0.688,11.58-1.937V251.198z"/>
		</g>
	</g>
</g>
<g>
	<g>
		<g>
			<path fill="#A3A3A3" d="M161.946,152.441h-111.1c-2.126,0-3.85,1.725-3.85,3.851v78.182c0,2.126,1.724,3.85,3.85,3.85h111.1
				c2.127,0,3.85-1.724,3.85-3.85v-78.182C165.796,154.165,164.073,152.441,161.946,152.441z M158.097,230.624H54.696v-70.482
				h103.401V230.624z"/>
		</g>
	</g>
</g>
</svg>
