<?xml version="1.0" encoding="utf-8"?>
<!-- Generator: Adobe Illustrator 16.0.0, SVG Export Plug-In . SVG Version: 6.00 Build 0)  -->
<!DOCTYPE svg PUBLIC "-//W3C//DTD SVG 1.1//EN" "http://www.w3.org/Graphics/SVG/1.1/DTD/svg11.dtd">
<svg version="1.1" id="Capa_1" xmlns="http://www.w3.org/2000/svg" xmlns:xlink="http://www.w3.org/1999/xlink" x="0px" y="0px"
	 width="283.465px" height="283.465px" viewBox="0 0 283.465 283.465" enable-background="new 0 0 283.465 283.465"
	 xml:space="preserve">
<g>
	<g>
		<g>
			<g>
				<path fill="#A3A3A3" d="M227.036,182.599c-7.568,0-13.761,6.193-13.761,13.762c0,7.568,6.193,13.761,13.761,13.761
					s13.759-6.193,13.759-13.761C240.795,188.792,234.604,182.599,227.036,182.599z M227.036,204.617
					c-4.542,0-8.258-3.716-8.258-8.256c0-4.542,3.716-8.256,8.258-8.256s8.256,3.715,8.256,8.256
					C235.292,200.9,231.577,204.617,227.036,204.617z"/>
				<path fill="#A3A3A3" d="M171.992,182.599c-7.569,0-13.761,6.193-13.761,13.762c0,7.568,6.192,13.761,13.761,13.761
					c7.569,0,13.76-6.193,13.76-13.761C185.752,188.792,179.561,182.599,171.992,182.599z M171.992,204.617
					c-4.542,0-8.257-3.716-8.257-8.256c0-4.542,3.715-8.256,8.257-8.256c4.541,0,8.257,3.715,8.257,8.256
					C180.249,200.9,176.533,204.617,171.992,204.617z"/>
				<path fill="#A3A3A3" d="M265.566,103.612c-1.515-2.202-3.991-3.578-6.744-3.578H146.533l-1.65-8.257
					c-1.239-6.467-6.88-11.008-13.487-11.008h-9.907c-1.514,0-2.752,1.238-2.752,2.753c0,1.513,1.238,2.751,2.752,2.751h9.907
					c3.993,0,7.294,2.752,7.982,6.604l2.063,10.459c0,0.275,0.138,0.55,0.276,0.826l11.834,61.923
					c1.375,6.468,7.017,11.146,13.623,11.146h64.401c5.78,0,10.87-3.577,12.935-8.945l21.88-56.969
					C267.492,108.703,267.079,105.813,265.566,103.612z M261.3,109.253l-21.879,56.971c-1.24,3.303-4.266,5.366-7.707,5.366h-64.401
					c-3.853,0-7.292-2.889-8.119-6.742l-8.257-42.797h64.952c1.513,0,2.752-1.238,2.752-2.751s-1.239-2.752-2.752-2.752h-66.054
					l-2.063-11.009h111.05c0.964,0,1.652,0.413,2.203,1.1C261.575,107.465,261.713,108.429,261.3,109.253z"/>
				<path fill="#A3A3A3" d="M232.402,116.547h-4.128c-1.515,0-2.753,1.239-2.753,2.752s1.238,2.751,2.753,2.751h4.128
					c1.514,0,2.752-1.238,2.752-2.751S233.916,116.547,232.402,116.547z"/>
			</g>
		</g>
	</g>
</g>
<g>
	<g>
		<path fill="#A3A3A3" d="M154.188,37.986h-41.096c-2.268,0-4.109,1.841-4.109,4.109c0,2.269,1.841,4.109,4.109,4.109h41.096
			c2.268,0,4.109-1.841,4.109-4.109C158.297,39.828,156.456,37.986,154.188,37.986z"/>
	</g>
</g>
<g>
	<g>
		<path fill="#A3A3A3" d="M182.955,37.986h-4.109c-2.269,0-4.11,1.841-4.11,4.109c0,2.269,1.841,4.109,4.11,4.109h4.109
			c2.269,0,4.109-1.841,4.109-4.109C187.063,39.828,185.223,37.986,182.955,37.986z"/>
	</g>
</g>
<g>
	<g>
		<path fill="#A3A3A3" d="M138.744,235.246H128.54c-6.251,0-11.338,5.087-11.338,11.338v1.985c0,6.25,5.087,11.334,11.334,11.334
			h10.204c6.251,0,11.338-5.084,11.338-11.334v-1.985C150.078,240.333,144.99,235.246,138.744,235.246z M141.859,248.569
			c0,1.718-1.397,3.115-3.115,3.115H128.54c-1.722,0-3.12-1.397-3.12-3.115v-1.985c0-1.722,1.397-3.119,3.12-3.119h10.199
			c1.723,0,3.12,1.397,3.12,3.119V248.569z"/>
	</g>
</g>
<path fill="#A3A3A3" d="M195.283,187.732v69.644h0c0,3.658-2.976,6.637-6.633,6.637H78.633c-3.662,0-6.637-2.979-6.637-6.633V40.514
	c0-3.658,2.975-6.637,6.637-6.637h110.013c3.661,0,6.637,2.98,6.637,6.637v48.219h0h8.219V40.514c0-8.19-6.666-14.856-14.852-14.856
	H78.633c-8.19,0-14.856,6.666-14.856,14.856v216.862c0,8.191,6.666,14.856,14.856,14.856h110.013c8.19,0,14.856-6.665,14.856-14.851
	v-69.648H195.283L195.283,187.732z"/>
<rect x="65.732" y="51.232" fill="#A3A3A3" width="136" height="6"/>
<rect x="65.732" y="226.566" fill="#A3A3A3" width="136" height="6"/>
</svg>
