<?xml version="1.0" encoding="utf-8"?>
<!-- Generator: Adobe Illustrator 16.0.0, SVG Export Plug-In . SVG Version: 6.00 Build 0)  -->
<!DOCTYPE svg PUBLIC "-//W3C//DTD SVG 1.1//EN" "http://www.w3.org/Graphics/SVG/1.1/DTD/svg11.dtd">
<svg version="1.1" id="Capa_1" xmlns="http://www.w3.org/2000/svg" xmlns:xlink="http://www.w3.org/1999/xlink" x="0px" y="0px"
	 width="283.465px" height="283.465px" viewBox="0 0 283.465 283.465" enable-background="new 0 0 283.465 283.465"
	 xml:space="preserve">
<g>
	<path fill="#A3A3A3" d="M123.899,227.675c-1.355,0-2.682,0.551-3.639,1.508c-0.957,0.957-1.508,2.286-1.508,3.639
		s0.551,2.682,1.508,3.639s2.284,1.508,3.639,1.508c1.353,0,2.68-0.551,3.639-1.508c0.957-0.957,1.508-2.28,1.508-3.639
		c0-1.353-0.551-2.682-1.508-3.639C126.579,228.227,125.252,227.675,123.899,227.675z"/>
	<path fill="#A3A3A3" d="M226.408,141.271l-11.995-54.187c3.237-0.438,6.092-2.084,8.101-4.469c2.37,1.482,5.166,2.342,8.162,2.342
		h10.293c2.843,0,5.146-2.304,5.146-5.147V59.224c0-2.842-2.304-5.146-5.146-5.146h-10.293c-3.084,0-5.958,0.912-8.373,2.479
		c-2.356-2.664-5.796-4.349-9.624-4.349h-30.381c-5.458,0-10.131,3.424-11.99,8.234h-12.199c-7.378,0-13.381,6.003-13.381,13.382
		c0,7.378,6.002,13.381,13.381,13.381h26.491v10.372c0,2.843,2.304,5.147,5.147,5.147s5.146-2.304,5.146-5.147V87.205h9.006
		l12.919,58.372l-24.451,43.549c-2.672,4.741-7.71,7.686-13.152,7.686h-61.037c-2.556-21.429-20.826-38.101-42.93-38.101
		c-9.781,0-19.008,3.187-26.686,9.214c-0.011,0.008-0.021,0.016-0.031,0.024c-9.141,7.189-14.887,17.506-16.226,28.863H21.735
		c0.672-36.999,30.979-66.89,68.133-66.89h36.509c2.88,0,5.227,2.346,5.227,5.229v46.221c0,2.842,2.304,5.146,5.147,5.146h27.385
		c11.172,0,21.468-6.075,26.868-15.852c2.499-4.523,3.824-9.646,3.828-14.811l0.026-17.099c0.004-2.842-2.297-5.15-5.14-5.154
		c-0.002,0-0.004,0-0.006,0c-2.839,0-5.143,2.299-5.146,5.138l-0.027,17.103c-0.002,3.434-0.882,6.84-2.543,9.845
		c-3.59,6.498-10.434,10.535-17.859,10.535h-22.239v-41.075c0-2.635-0.664-5.12-1.828-7.297c4.625-2.672,7.744-7.666,7.744-13.377
		c0-8.514-6.928-15.44-15.44-15.44h-18.785c-1.806,0-3.537,0.313-5.147,0.884V54.773c0-8.514-6.927-15.44-15.44-15.44H59.8
		c-24.069,0-44.084,17.671-47.764,40.719c-0.155,0.491-0.239,1.011-0.239,1.552c0,0.033,0.004,0.063,0.004,0.093
		c-0.245,1.97-0.372,3.975-0.372,6.007v26.772c0,7.729,5.711,14.151,13.136,15.267l11.397,11.396
		c-15.1,14.306-24.533,34.535-24.533,56.929v3.89c0,2.843,2.304,5.146,5.146,5.146H45.5c-0.066,0.332-0.103,0.678-0.103,1.029
		c0,7.469,2.764,14.302,7.316,19.541H16.576c-2.843,0-5.146,2.306-5.146,5.147c0,2.843,2.304,5.146,5.146,5.146h58.077
		c0.199,0.006,0.396,0.016,0.595,0.016c16.459,0,29.85-13.392,29.85-29.851c0-0.352-0.036-0.697-0.103-1.029h74.22
		c8.104,0,15.677-3.884,20.424-10.31h6.517c-1.465,3.567-2.243,7.411-2.243,11.339c0,7.469,2.764,14.302,7.316,19.541h-66.743
		c-2.843,0-5.147,2.306-5.147,5.147c0,2.843,2.304,5.146,5.147,5.146h88.682c0.2,0.006,0.396,0.016,0.596,0.016
		c16.459,0,29.851-13.392,29.851-29.851c0-3.928-0.778-7.772-2.244-11.339h8.419c2.843,0,5.146-2.304,5.146-5.146
		C274.937,164.482,253.335,142.266,226.408,141.271z M230.676,64.37h5.147v10.293h-5.147c-2.838,0-5.146-2.308-5.146-5.146
		C225.529,66.68,227.837,64.37,230.676,64.37z M158.108,76.912c-1.703,0-3.087-1.385-3.087-3.088c0-1.703,1.384-3.088,3.087-3.088
		h11.339v3.619c0,0.876,0.088,1.731,0.255,2.558H158.108z M189.746,76.912h-7.448c-1.41,0-2.557-1.146-2.557-2.558v-9.296
		c0-1.409,1.147-2.557,2.557-2.557h30.381c1.409,0,2.557,1.148,2.557,2.557v9.296c0,1.412-1.148,2.558-2.557,2.558H189.746z
		 M113.588,109.33h18.785c2.837,0,5.147,2.308,5.147,5.146c0,2.836-2.31,5.146-5.147,5.146h-18.785c-2.839,0-5.147-2.31-5.147-5.146
		C108.441,111.637,110.75,109.33,113.588,109.33z M43.917,134.538l-4.622-4.622h11.777C48.6,131.327,46.213,132.873,43.917,134.538z
		 M26.872,119.623c0,0-0.002,0-0.004,0c-2.837,0-5.145-2.31-5.145-5.146V87.704c0-0.318,0.016-0.633,0.023-0.951h56.318
		c2.843,0,5.146-2.304,5.146-5.147c0-2.842-2.304-5.146-5.146-5.146H23.42c4.809-15.524,19.298-26.831,36.38-26.831H93
		c2.838,0,5.146,2.308,5.146,5.146v59.701c0,2.836-2.308,5.146-5.146,5.146H26.872z M94.805,208.134
		c0,10.717-8.667,19.445-19.358,19.551c-0.066-0.002-0.133-0.01-0.199-0.01h-0.594c-10.51-0.315-18.963-8.956-18.963-19.541
		c0-0.352-0.037-0.697-0.103-1.029h39.319C94.841,207.437,94.805,207.783,94.805,208.134z M42.691,196.812
		c1.275-8.176,5.568-15.562,12.201-20.771c0.017-0.01,0.031-0.024,0.047-0.034c5.842-4.58,12.864-7.002,20.309-7.002
		c16.42,0,30.074,12.073,32.552,27.808H42.691z M233.963,227.686c-0.066-0.002-0.132-0.01-0.199-0.01h-0.593
		c-10.51-0.315-18.964-8.956-18.964-19.541c0-4.089,1.274-8.042,3.623-11.339h31.869c2.348,3.297,3.623,7.25,3.623,11.339
		C253.321,218.852,244.654,227.579,233.963,227.686z M205.644,186.502l19.626-34.955c20.042,0.369,36.543,15.497,39.044,34.955
		H205.644z"/>
	<path fill="#A3A3A3" d="M189.746,123.31c2.843,0,5.146-2.304,5.146-5.146s-2.304-5.147-5.146-5.147h-0.018
		c-2.842,0-5.139,2.304-5.139,5.147S186.903,123.31,189.746,123.31z"/>
</g>
</svg>
