<?xml version="1.0" encoding="utf-8"?>
<!-- Generator: Adobe Illustrator 16.0.0, SVG Export Plug-In . SVG Version: 6.00 Build 0)  -->
<!DOCTYPE svg PUBLIC "-//W3C//DTD SVG 1.1//EN" "http://www.w3.org/Graphics/SVG/1.1/DTD/svg11.dtd">
<svg version="1.1" id="Capa_1" xmlns="http://www.w3.org/2000/svg" xmlns:xlink="http://www.w3.org/1999/xlink" x="0px" y="0px"
	 width="283.465px" height="283.465px" viewBox="0 0 283.465 283.465" enable-background="new 0 0 283.465 283.465"
	 xml:space="preserve">
<g>
	<path fill="#A3A3A3" d="M271.32,190.639c-1.799-6.552-7.292-11.427-14.011-12.435V79.722h8.582c2.369,0,4.291-1.921,4.291-4.291
		V32.523c0-2.372-1.922-4.291-4.291-4.291H77.095c-2.37,0-4.291,1.918-4.291,4.291v42.908c0,2.37,1.921,4.291,4.291,4.291h8.582
		v85.816h-4.29c-10.65-0.025-21.082,3.027-30.037,8.791v-21.664c0-2.371-1.921-4.291-4.291-4.291H17.023
		c-2.37,0-4.291,1.92-4.291,4.291v98.689c0,2.37,1.921,4.291,4.291,4.291h30.036c2.37,0,4.291-1.921,4.291-4.291v-21.661
		c8.957,5.759,19.387,8.812,30.037,8.789h70.455c4.882-0.008,9.74-0.65,14.456-1.906l92.9-24.886
		C268.338,209.199,273.754,199.796,271.32,190.639z M81.386,36.814H261.6v34.327H81.386V36.814z M94.258,79.722h154.47v99.219
		l-49.799,13.354c-2.052-4.89-6.235-8.562-11.35-9.964l-57.815-15.506c-3.255-0.857-6.608-1.29-9.975-1.286H94.258V79.722z
		 M42.768,247.064H21.314v-90.107h21.454V247.064z M256.97,203.399l-92.883,24.886c-3.996,1.067-8.11,1.61-12.246,1.616H81.386
		c-10.216,0.022-20.162-3.292-28.32-9.441l-1.716-1.286v-34.327l1.716-1.289c8.159-6.15,18.104-9.466,28.32-9.438h38.403
		c2.621-0.002,5.234,0.337,7.771,1.007l57.796,15.494c3.415,0.941,5.915,3.868,6.305,7.39c0.045,0.176,0.102,0.35,0.171,0.52
		c-0.05,0.184-0.088,0.371-0.113,0.562c0.004,0.697-0.09,1.393-0.282,2.064c-1.01,3.739-4.398,6.339-8.271,6.346
		c-0.756,0.006-1.507-0.09-2.235-0.282l-36.473-9.781c-1.495-0.444-3.115-0.042-4.229,1.052c-1.113,1.094-1.546,2.705-1.13,4.208
		c0.417,1.502,1.618,2.663,3.137,3.025l36.472,9.785c1.456,0.383,2.958,0.576,4.466,0.574c7.715-0.004,14.476-5.165,16.514-12.607
		c0.239-0.861,0.4-1.741,0.486-2.629l52.31-14.026c0.373-0.095,0.777-0.191,1.158-0.254c4.272-0.551,8.289,2.15,9.393,6.311
		c0.193,0.725,0.289,1.473,0.283,2.223C263.322,198.985,260.72,202.387,256.97,203.399z"/>
	<path fill="#A3A3A3" d="M150.039,96.885h42.908c2.369,0,4.291-1.921,4.291-4.291c0-2.372-1.921-4.291-4.291-4.291h-42.908
		c-2.37,0-4.291,1.919-4.291,4.291C145.748,94.964,147.669,96.885,150.039,96.885z"/>
</g>
</svg>
