<?xml version="1.0" encoding="utf-8"?>
<!-- Generator: Adobe Illustrator 22.0.0, SVG Export Plug-In . SVG Version: 6.00 Build 0)  -->
<svg version="1.1" id="Capa_1" xmlns="http://www.w3.org/2000/svg" xmlns:xlink="http://www.w3.org/1999/xlink" x="0px" y="0px"
	 viewBox="0 0 22.282 22.239" enable-background="new 0 0 22.282 22.239" xml:space="preserve">
<g>
	<g>
		<path fill="#686868" stroke="#686868" stroke-width="0.75" stroke-miterlimit="10" d="M17.36,7.802V2.37
			c0-0.757-0.419-1.417-1.037-1.764c-0.008-0.005-0.016-0.01-0.024-0.015c-0.019-0.01-0.038-0.018-0.057-0.028
			c-0.157-0.079-0.324-0.14-0.5-0.176c-0.021-0.004-0.043-0.006-0.064-0.01c-0.045-0.008-0.09-0.016-0.136-0.021
			c-0.068-0.007-0.137-0.011-0.208-0.011H6.946c-1.116,0-2.024,0.908-2.024,2.024v17.231c0,0.702,0.319,1.331,0.818,1.752
			c0.006,0.005,0.011,0.011,0.017,0.016c0.029,0.024,0.06,0.045,0.09,0.067c0.029,0.022,0.057,0.045,0.087,0.065
			c0.013,0.009,0.027,0.016,0.04,0.025c0.111,0.071,0.227,0.135,0.349,0.187c0.02,0.008,0.041,0.015,0.061,0.022
			c0.049,0.019,0.098,0.039,0.149,0.055c0.216,0.067,0.445,0.103,0.682,0.103h7.851c1.264,0,2.292-1.028,2.292-2.292v-4.355V7.802z
			 M5.652,2.371c0-0.714,0.581-1.296,1.296-1.296h8.387c0.002,0,0.005,0.001,0.007,0.001c0.086,0,0.171,0.009,0.253,0.026
			c0.142,0.029,0.273,0.086,0.394,0.157c0.023,0.013,0.048,0.023,0.069,0.038c0.011,0.007,0.02,0.017,0.03,0.025
			c0.327,0.235,0.541,0.617,0.541,1.049v0.645H5.652V2.371z M16.63,19.6c0,0.862-0.701,1.563-1.563,1.563H7.215
			c-0.161,0-0.317-0.025-0.464-0.07c-0.028-0.009-0.054-0.02-0.081-0.03c-0.021-0.008-0.042-0.014-0.062-0.023
			c-0.088-0.037-0.172-0.083-0.251-0.135c-0.005-0.003-0.01-0.006-0.014-0.009c-0.023-0.015-0.044-0.033-0.066-0.049
			c-0.018-0.014-0.037-0.027-0.055-0.041c-0.004-0.003-0.008-0.007-0.012-0.011c-0.341-0.287-0.558-0.716-0.558-1.195V18.36H16.63
			V19.6z M16.63,15.246v2.384H5.651V3.745H16.63v4.056V15.246z"/>
		<path fill="#686868" stroke="#686868" stroke-width="0.75" stroke-miterlimit="10" d="M10.081,20.126h2.12
			c0.201,0,0.365-0.163,0.365-0.365c0-0.201-0.163-0.365-0.365-0.365h-2.12c-0.201,0-0.365,0.163-0.365,0.365
			C9.716,19.963,9.88,20.126,10.081,20.126z"/>
	</g>
</g>
</svg>
