<?xml version="1.0" encoding="utf-8"?>
<!-- Generator: Adobe Illustrator 16.0.0, SVG Export Plug-In . SVG Version: 6.00 Build 0)  -->
<!DOCTYPE svg PUBLIC "-//W3C//DTD SVG 1.1//EN" "http://www.w3.org/Graphics/SVG/1.1/DTD/svg11.dtd">
<svg version="1.1" id="Capa_1" xmlns="http://www.w3.org/2000/svg" xmlns:xlink="http://www.w3.org/1999/xlink" x="0px" y="0px"
	 width="72.165px" height="72.157px" viewBox="0 0 72.165 72.157" enable-background="new 0 0 72.165 72.157" xml:space="preserve">
<path fill="#FFFFFF" d="M71.087,27.751c0-0.297-0.071-0.579-0.227-0.833L60.578,8.838c-0.297-0.522-0.861-0.861-1.469-0.861H13.924
	c-0.608,0-1.172,0.325-1.469,0.861L2.187,26.918c-0.142,0.254-0.227,0.536-0.227,0.833c0,4.055,2.444,7.529,5.933,9.068v29.817
	c0,0.933,0.763,1.695,1.695,1.695h53.858c0.932,0,1.695-0.762,1.695-1.695V37.031c0-0.07,0-0.127-0.014-0.184
	C68.629,35.308,71.087,31.818,71.087,27.751 M14.912,11.38H58.12l8.038,14.139H6.89L14.912,11.38z M51.157,28.895
	c-0.536,3.052-3.206,5.368-6.412,5.368s-5.876-2.316-6.414-5.368H51.157z M34.73,28.895c-0.537,3.052-3.208,5.368-6.413,5.368
	c-3.207,0-5.877-2.316-6.427-5.368H34.73z M5.463,28.895h12.839c-0.536,3.052-3.22,5.368-6.426,5.368
	C8.669,34.277,6,31.946,5.463,28.895 M30.436,64.942h-9.747V46.65c0-1.329,1.074-2.416,2.417-2.416h4.929
	c1.329,0,2.416,1.074,2.416,2.416v18.292H30.436z M61.75,64.942H33.826V46.65c0-3.192-2.598-5.806-5.805-5.806h-4.93
	c-3.192,0-5.806,2.6-5.806,5.806v18.305h-6.003V37.652c0.198,0.015,0.395,0.015,0.593,0.015c3.418,0,6.442-1.738,8.22-4.38
	c1.78,2.642,4.804,4.38,8.222,4.38s6.426-1.738,8.221-4.38c1.779,2.642,4.802,4.38,8.207,4.38c3.418,0,6.426-1.738,8.207-4.38
	c1.779,2.642,4.802,4.38,8.22,4.38c0.197,0,0.382-0.015,0.579-0.015V64.942z M61.171,34.277c-3.207,0-5.876-2.318-6.413-5.368H67.6
	C67.047,31.946,64.377,34.277,61.171,34.277"/>
</svg>
