<?xml version="1.0" encoding="utf-8"?>
<!-- Generator: Adobe Illustrator 22.0.0, SVG Export Plug-In . SVG Version: 6.00 Build 0)  -->
<svg version="1.1" id="Capa_1" xmlns="http://www.w3.org/2000/svg" xmlns:xlink="http://www.w3.org/1999/xlink" x="0px" y="0px"
	 viewBox="0 0 44.22 44.22" enable-background="new 0 0 44.22 44.22" xml:space="preserve">
<g>
	<g>
	</g>
</g>
<path fill="#FFFFFF" d="M37.075,31.527l-7.683-7.684c2.231-2.364,3.609-5.541,3.609-9.04c0-7.275-5.918-13.193-13.193-13.193
	S6.616,7.528,6.616,14.803s5.918,13.194,13.193,13.194c2.468,0,4.772-0.694,6.75-1.879l7.962,7.962
	c0.353,0.353,0.815,0.529,1.277,0.529s0.924-0.176,1.277-0.529C37.781,33.375,37.781,32.232,37.075,31.527z M10.229,14.803
	c0-5.283,4.298-9.58,9.58-9.58s9.58,4.297,9.58,9.58s-4.298,9.581-9.58,9.581S10.229,20.086,10.229,14.803z"/>
</svg>
