<svg width="27" height="28" viewBox="0 0 27 28" fill="none" xmlns="http://www.w3.org/2000/svg">
<path d="M23.6412 22.9453L18.4346 17.8224C19.9465 16.2464 20.8803 14.1283 20.8803 11.7956C20.8803 6.94545 16.8699 3 11.9398 3C7.00978 3 3 6.94545 3 11.7956C3 16.6457 7.01046 20.5919 11.9405 20.5919C13.613 20.5919 15.1744 20.1292 16.5148 19.3392L21.9104 24.6473C22.1496 24.8827 22.4627 25 22.7758 25C23.0889 25 23.402 24.8827 23.6412 24.6473C24.1196 24.1773 24.1196 23.4153 23.6412 22.9453ZM5.44842 11.7956C5.44842 8.27349 8.36105 5.40874 11.9405 5.40874C15.52 5.40874 18.4326 8.27349 18.4326 11.7956C18.4326 15.3177 15.52 18.1831 11.9405 18.1831C8.36105 18.1831 5.44842 15.3177 5.44842 11.7956Z" fill="#2E3A59"/>
</svg>
