<?xml version="1.0" encoding="utf-8"?>
<!-- Generator: Adobe Illustrator 22.0.0, SVG Export Plug-In . SVG Version: 6.00 Build 0)  -->
<svg version="1.1" id="Capa_1" xmlns="http://www.w3.org/2000/svg" xmlns:xlink="http://www.w3.org/1999/xlink" x="0px" y="0px"
	 viewBox="0 0 22.282 22.239" enable-background="new 0 0 22.282 22.239" xml:space="preserve">
<g>
	<g>
		<path fill="#686868" stroke="#686868" stroke-width="0.75" stroke-miterlimit="10" d="M5.979,16.81
			c0.134,0,0.26-0.066,0.337-0.176c0.177-0.255,4.353-6.27,4.894-8.15c0.264-0.915,0.344-1.586,0.368-1.909
			c0.006-0.095,0.006-0.144,0.006-0.144c0-3.339-2.514-6.056-5.604-6.056S0.375,3.092,0.375,6.431c0,0,0,0.03,0.003,0.072
			c0.01,0.195,0.065,0.915,0.375,1.992c0.543,1.88,4.712,7.884,4.889,8.139C5.719,16.744,5.845,16.81,5.979,16.81z M1.198,6.462
			c0-0.003-0.002-0.029-0.002-0.032c0-2.886,2.146-5.234,4.783-5.234s4.783,2.348,4.783,5.233c0,0.006-0.001,0.038-0.004,0.089
			c-0.021,0.286-0.094,0.893-0.338,1.737c-0.419,1.458-3.423,5.927-4.442,7.418c-1.018-1.49-4.016-5.949-4.437-7.407
			C1.257,7.276,1.207,6.635,1.198,6.462z"/>
		<path fill="#686868" stroke="#686868" stroke-width="0.75" stroke-miterlimit="10" d="M8.927,5.926
			c0-1.625-1.322-2.948-2.948-2.948c-1.625,0-2.948,1.322-2.948,2.948c0,1.625,1.322,2.948,2.948,2.948
			C7.605,8.874,8.927,7.551,8.927,5.926z M3.853,5.926c0-1.173,0.954-2.126,2.126-2.126s2.126,0.954,2.126,2.126
			c0,1.173-0.954,2.127-2.126,2.127S3.853,7.098,3.853,5.926z"/>
		<path fill="#686868" stroke="#686868" stroke-width="0.75" stroke-miterlimit="10" d="M20.182,12.631
			c-0.227,0-0.411,0.184-0.411,0.411v7.183c0,0.451-0.367,0.818-0.818,0.818H7.053c-0.451,0-0.818-0.367-0.818-0.818v-2.395
			c0-0.227-0.184-0.411-0.411-0.411s-0.411,0.184-0.411,0.411v2.395c0,0.904,0.735,1.639,1.639,1.639h11.901
			c0.904,0,1.639-0.735,1.639-1.639v-7.183C20.593,12.815,20.409,12.631,20.182,12.631z"/>
		<path fill="#686868" stroke="#686868" stroke-width="0.75" stroke-miterlimit="10" d="M21.713,8.05
			c-0.005-0.018-0.009-0.036-0.016-0.053l-0.058-0.137c-0.006-0.014-0.013-0.027-0.02-0.04l0,0c-0.006-0.013-0.01-0.026-0.016-0.039
			l-0.007-0.017c-0.017-0.041-0.041-0.075-0.069-0.107l-1.543-2.733c-0.317-0.733-1.032-1.205-1.831-1.205h-6.154
			c-0.227,0-0.411,0.184-0.411,0.411s0.184,0.411,0.411,0.411h6.154c0.475,0,0.9,0.284,1.083,0.723
			c0.006,0.015,0.013,0.03,0.021,0.044l1.635,2.897l0.021,0.049c0.006,0.016,0.012,0.031,0.019,0.051
			c0.102,0.264,0.154,0.548,0.154,0.843c0,0.795-0.396,1.504-1.087,1.955c-0.276,0.093-0.563,0.142-0.854,0.142
			c-1.233,0-2.293-0.837-2.577-2.036c-0.053-0.225-0.251-0.383-0.481-0.383c0,0-0.001,0-0.001,0c-0.23,0-0.428,0.157-0.482,0.382
			c-0.284,1.199-1.344,2.037-2.576,2.037c-0.156,0-0.317-0.023-0.486-0.048l-0.073-0.011c-0.691-0.099-1.275-0.574-1.28-0.578
			c-0.175-0.145-0.433-0.121-0.579,0.053c-0.145,0.174-0.121,0.433,0.053,0.579c0.031,0.025,0.763,0.628,1.689,0.76l0.071,0.01
			c0.191,0.028,0.388,0.056,0.604,0.056c1.308,0,2.467-0.72,3.059-1.828c0.591,1.108,1.751,1.828,3.059,1.828
			c0.391,0,0.777-0.066,1.148-0.195c0.001,0,0.003-0.001,0.004-0.001c0.008-0.003,0.016-0.005,0.024-0.007
			c0.028-0.01,0.055-0.024,0.079-0.039c0,0,0.001,0,0.002-0.001c0.957-0.603,1.506-1.578,1.506-2.675
			C21.907,8.759,21.839,8.384,21.713,8.05z"/>
	</g>
</g>
</svg>
